<svg width="339" height="53" viewBox="0 0 339 53" fill="none" xmlns="http://www.w3.org/2000/svg">
<path d="M275.076 50.9414L285.583 1.52161H303.971L315.394 27.9114H315.638L321.258 1.52161H338.302L327.795 50.9414H310.201L298.167 23.8796H297.801L292.059 50.9414H275.076Z" fill="white"/>
<path d="M240.844 39.518C245.487 39.518 248.724 37.0745 249.885 34.3256H243.532L245.914 23.1466H269.372L263.446 50.8803H252.206L252.512 46.7264C248.663 50.0862 242.31 52.041 236.568 52.041C219.463 52.041 211.888 43 215.37 26.4453C218.914 9.76841 230.765 0.544189 248.48 0.544189C263.63 0.544189 270.227 8.3023 269.555 19.5424H252.573C253 15.4495 248.908 13.5558 246.097 13.5558C238.767 13.5558 234.43 18.5039 232.78 26.262L232.719 26.5675C231.07 34.2645 233.208 39.518 240.844 39.518Z" fill="white"/>
<path d="M182.829 50.9414L193.336 1.52161H210.93L200.423 50.9414H182.829Z" fill="white"/>
<path d="M142.897 34.1423C141.797 39.4569 145.34 40.6787 150.288 40.6787C152.976 40.6787 157.252 40.1289 158.047 36.5247C158.657 33.7758 156.703 33.3482 149.555 31.5156C148.883 31.3323 148.15 31.0879 147.295 30.9047C138.56 28.6444 128.053 26.262 130.068 16.7324C132.695 4.45379 144.791 0.544189 156.703 0.544189C169.165 0.544189 179.794 4.69814 177.228 16.8546H160.124C161.345 12.945 157.619 11.5399 154.32 11.5399C152.06 11.5399 148.211 12.0286 147.662 14.7776C147.112 17.2822 151.877 18.2596 157.13 19.4813L162.567 20.8252C170.142 22.6579 178.328 26.2009 176.495 34.9365C173.746 47.7038 159.207 51.7966 146.318 51.7966C139.904 51.7966 121.577 49.7807 124.815 34.1423H142.897Z" fill="white"/>
<path d="M63.3198 50.9414L73.8269 1.52161H121.17L118.482 14.1667H88.7322L87.3883 20.3366H115.305L112.801 32.1265H84.8837L83.6009 38.2352H114.206L111.518 50.9414H63.3198Z" fill="white"/>
<path d="M25.8369 13.9835L20.6445 38.4796H26.6921C37.3213 38.4796 40.6812 30.5382 41.6586 25.9566C42.3305 22.8411 43.1858 13.9835 30.6628 13.9835H25.8369ZM0.791016 50.9414L11.2981 1.52161H38.9096C57.4802 1.52161 61.512 13.678 58.8242 26.1399C55.5865 41.3507 44.4686 50.9414 25.0428 50.9414H0.791016Z" fill="white"/>
</svg>
