<svg width="675" height="52" viewBox="0 0 675 52" fill="none" xmlns="http://www.w3.org/2000/svg">
<path d="M630.572 50.8803L638.391 14.1667H622.752L625.44 1.52161H674.066L671.378 14.1667H655.679L647.859 50.8803H630.572Z" fill="white"/>
<path d="M553.669 50.9414L564.176 1.52161H582.564L593.987 27.9114H594.231L599.851 1.52161H616.895L606.388 50.9414H588.794L576.76 23.8796H576.394L570.651 50.9414H553.669Z" fill="white"/>
<path d="M493.885 50.9414L504.392 1.52161H551.734L549.047 14.1667H519.297L517.953 20.3366H545.87L543.365 32.1265H515.448L514.166 38.2352H544.77L542.083 50.9414H493.885Z" fill="white"/>
<path d="M413.757 50.9414L424.264 1.52161H450.043L452.242 30.5382H452.487L467.026 1.52161H492.805L482.298 50.9414H465.132L471.852 19.1759H471.729L454.808 50.9414H441.247L437.765 19.1759H437.581L430.862 50.9414H413.757Z" fill="white"/>
<path d="M378.132 14.1667L376.055 23.7575H382.836C387.296 23.7575 392.244 24.0018 393.282 18.9315C394.259 14.4722 390.228 14.1667 385.89 14.1667H378.132ZM352.72 50.9414L363.227 1.52161H392.61C408.126 1.52161 411.608 10.8069 409.959 18.3818C407.454 30.2938 396.947 35.975 383.875 35.975H373.49L370.313 50.9414H352.72Z" fill="white"/>
<path d="M326.995 0.544189C345.566 0.544189 351.614 10.1349 348.193 26.201C344.772 42.2059 335.364 51.7966 316.122 51.7966C296.94 51.7966 291.504 42.2059 294.925 26.201C298.345 10.1349 308.364 0.544189 326.995 0.544189ZM318.81 39.1515C326.14 39.1515 329.256 34.0202 330.905 26.3231L330.966 26.0177C332.616 18.2596 331.699 13.1893 324.308 13.1893C316.916 13.1893 313.984 18.2596 312.334 26.0177L312.273 26.3231C310.624 34.0202 311.357 39.1515 318.81 39.1515Z" fill="white"/>
<path d="M241.86 50.9414L252.367 1.52161H270.022L262.202 38.2352H287.493L284.805 50.9414H241.86Z" fill="white"/>
<path d="M182.076 50.9414L192.583 1.52161H239.926L237.238 14.1667H207.488L206.144 20.3366H234.061L231.557 32.1265H203.64L202.357 38.2352H232.962L230.274 50.9414H182.076Z" fill="white"/>
<path d="M184.653 1.52161L155.698 50.9414H136.638L129.491 1.52161H147.023L150.139 31.8821H150.261L166.327 1.52161H184.653Z" fill="white"/>
<path d="M62.8645 50.9414L73.3716 1.52161H120.714L118.027 14.1667H88.2769L86.933 20.3366H114.85L112.345 32.1265H84.4284L83.1456 38.2352H113.75L111.063 50.9414H62.8645Z" fill="white"/>
<path d="M25.3816 13.9835L20.1891 38.4796H26.2368C36.866 38.4796 40.2258 30.5382 41.2032 25.9566C41.8752 22.8411 42.7304 13.9835 30.2075 13.9835H25.3816ZM0.335693 50.9414L10.8427 1.52161H38.4543C57.0249 1.52161 61.0567 13.678 58.3688 26.1399C55.1312 41.3507 44.0133 50.9414 24.5874 50.9414H0.335693Z" fill="white"/>
</svg>
