<svg width="650" height="38" viewBox="0 0 650 38" fill="none" xmlns="http://www.w3.org/2000/svg">
<path d="M642.47 25.855H629.69V18.25C630.5 18.07 631.28 17.815 632.03 17.485C632.78 17.155 633.455 16.78 634.055 16.36C634.655 15.91 635.135 15.43 635.495 14.92C635.855 14.38 636.035 13.81 636.035 13.21C636.035 12.25 635.765 11.5 635.225 10.96C634.715 10.42 634.085 10.15 633.335 10.15C631.595 10.15 629.93 10.42 628.34 10.96C626.78 11.47 625.175 12.34 623.525 13.57V3.53497C624.965 2.54497 626.75 1.73497 628.88 1.10497C631.04 0.474973 633.68 0.159973 636.8 0.159973C638.87 0.159973 640.67 0.429972 642.2 0.969973C643.76 1.47997 645.05 2.21497 646.07 3.17497C647.12 4.13497 647.9 5.28997 648.41 6.63997C648.92 7.98997 649.175 9.47497 649.175 11.095C649.175 13.525 648.635 15.76 647.555 17.8C646.475 19.81 644.78 21.445 642.47 22.705V25.855ZM642.47 37.78H632.66C631.64 37.78 630.845 37.555 630.275 37.105C629.735 36.685 629.465 35.95 629.465 34.9V26.935H642.47V37.78Z" fill="#252525"/>
<path d="M600.572 10.06L598.367 16.54L599.582 16.855L605.072 0.835022H620.642V35.98H608.492V24.145L604.892 35.98H596.792L593.192 24.145V35.98H580.907V0.835022H597.692L600.572 10.06Z" fill="#252525"/>
<path d="M558.573 35.98H542.373L553.173 0.835022H568.473L579.273 35.98H563.073L560.823 28.69L558.573 35.98ZM555.693 17.26L554.883 18.475C556.593 19.285 558.528 19.825 560.688 20.095C562.848 20.365 565.008 20.5 567.168 20.5V19.15C565.008 19.15 562.938 19.015 560.958 18.745C559.008 18.445 557.253 17.95 555.693 17.26Z" fill="#252525"/>
<path d="M527.206 0.835022V36.025H512.221V0.835022H527.206Z" fill="#252525"/>
<path d="M477.95 35.98H462.65V0.835022H477.95V6.10002L474.98 14.515L476.195 14.83L481.01 0.835022H496.76L490.055 18.385L496.76 35.98H481.01L477.95 27.07V35.98Z" fill="#252525"/>
<path d="M459.396 0.835022V36.025H441.666L438.066 24.19V36.025H425.736V0.835022H443.511L448.326 14.83L449.541 14.515L446.571 6.10002V0.835022H459.396Z" fill="#252525"/>
<path d="M422.484 0.835022V36.025H407.499V0.835022H422.484Z" fill="#252525"/>
<path d="M404.259 0.835022V36.025H387.924V28.015H386.349V36.025H370.014V0.835022H386.349V8.84502H387.924V0.835022H404.259Z" fill="#252525"/>
<path d="M335.409 0.835022H367.629V12.31H359.169V36.025H343.869V12.31H335.409V0.835022Z" fill="#252525"/>
<path d="M285.507 18.43V0.835022H301.797V22.795H303.372V0.835022H319.482V18.43C319.482 21.43 319.047 24.07 318.177 26.35C317.337 28.63 316.152 30.535 314.622 32.065C313.122 33.595 311.337 34.75 309.267 35.53C307.197 36.31 304.932 36.7 302.472 36.7C300.042 36.7 297.777 36.31 295.677 35.53C293.607 34.78 291.822 33.64 290.322 32.11C288.822 30.58 287.637 28.675 286.767 26.395C285.927 24.115 285.507 21.46 285.507 18.43Z" fill="#252525"/>
<path d="M248.801 18.43C248.801 15.43 249.221 12.79 250.061 10.51C250.931 8.22997 252.116 6.32497 253.616 4.79497C255.116 3.26497 256.901 2.10997 258.971 1.32997C261.071 0.549973 263.336 0.159973 265.766 0.159973C268.226 0.159973 270.491 0.549973 272.561 1.32997C274.631 2.10997 276.416 3.26497 277.916 4.79497C279.446 6.32497 280.631 8.22997 281.471 10.51C282.341 12.79 282.776 15.43 282.776 18.43C282.776 21.43 282.341 24.07 281.471 26.35C280.631 28.63 279.446 30.535 277.916 32.065C276.416 33.595 274.631 34.75 272.561 35.53C270.491 36.31 268.226 36.7 265.766 36.7C263.336 36.7 261.071 36.31 258.971 35.53C256.901 34.78 255.116 33.64 253.616 32.11C252.116 30.58 250.931 28.675 250.061 26.395C249.221 24.115 248.801 21.46 248.801 18.43ZM260.546 16.585L259.736 17.8C261.446 18.61 263.381 19.15 265.541 19.42C267.701 19.69 269.861 19.825 272.021 19.825V18.475C269.861 18.475 267.791 18.34 265.811 18.07C263.861 17.77 262.106 17.275 260.546 16.585Z" fill="#252525"/>
<path d="M230.115 0.835022L232.77 7.36002L230.385 13.525L231.6 13.84L236.595 0.835022H251.265L240.96 24.19V35.98H225.615V24.28L214.365 0.835022H230.115Z" fill="#252525"/>
<path d="M165.744 18.43C165.744 15.43 166.164 12.79 167.004 10.51C167.874 8.22997 169.059 6.32497 170.559 4.79497C172.059 3.26497 173.844 2.10997 175.914 1.32997C178.014 0.549973 180.279 0.159973 182.709 0.159973C185.169 0.159973 187.434 0.549973 189.504 1.32997C191.574 2.10997 193.359 3.26497 194.859 4.79497C196.389 6.32497 197.574 8.22997 198.414 10.51C199.284 12.79 199.719 15.43 199.719 18.43C199.719 21.43 199.284 24.07 198.414 26.35C197.574 28.63 196.389 30.535 194.859 32.065C193.359 33.595 191.574 34.75 189.504 35.53C187.434 36.31 185.169 36.7 182.709 36.7C180.279 36.7 178.014 36.31 175.914 35.53C173.844 34.78 172.059 33.64 170.559 32.11C169.059 30.58 167.874 28.675 167.004 26.395C166.164 24.115 165.744 21.46 165.744 18.43ZM177.489 16.585L176.679 17.8C178.389 18.61 180.324 19.15 182.484 19.42C184.644 19.69 186.804 19.825 188.964 19.825V18.475C186.804 18.475 184.734 18.34 182.754 18.07C180.804 17.77 179.049 17.275 177.489 16.585Z" fill="#252525"/>
<path d="M144.29 35.98H132.05V0.835022H143.975C147.245 0.835022 150.11 1.13502 152.57 1.73502C155.06 2.30502 157.13 3.28002 158.78 4.66002C160.43 6.04002 161.675 7.87002 162.515 10.15C163.355 12.43 163.775 15.28 163.775 18.7C163.775 22.18 163.37 25.03 162.56 27.25C161.78 29.47 160.58 31.24 158.96 32.56C157.37 33.85 155.345 34.735 152.885 35.215C150.455 35.725 147.59 35.98 144.29 35.98ZM140.6 16.18L139.79 17.395C140.87 17.755 142.04 18.07 143.3 18.34C144.56 18.58 145.835 18.79 147.125 18.97C148.445 19.12 149.75 19.24 151.04 19.33C152.36 19.39 153.605 19.42 154.775 19.42V18.07C153.605 18.07 152.39 18.025 151.13 17.935C149.87 17.845 148.625 17.725 147.395 17.575C146.195 17.395 145.01 17.185 143.84 16.945C142.67 16.705 141.59 16.45 140.6 16.18Z" fill="#252525"/>
<path d="M81.8086 18.43C81.8086 15.43 82.2286 12.79 83.0686 10.51C83.9386 8.22997 85.1236 6.32497 86.6236 4.79497C88.1236 3.26497 89.9086 2.10997 91.9786 1.32997C94.0786 0.549973 96.3436 0.159973 98.7736 0.159973C101.234 0.159973 103.499 0.549973 105.569 1.32997C107.639 2.10997 109.424 3.26497 110.924 4.79497C112.454 6.32497 113.639 8.22997 114.479 10.51C115.349 12.79 115.784 15.43 115.784 18.43C115.784 21.43 115.349 24.07 114.479 26.35C113.639 28.63 112.454 30.535 110.924 32.065C109.424 33.595 107.639 34.75 105.569 35.53C103.499 36.31 101.234 36.7 98.7736 36.7C96.3436 36.7 94.0786 36.31 91.9786 35.53C89.9086 34.78 88.1236 33.64 86.6236 32.11C85.1236 30.58 83.9386 28.675 83.0686 26.395C82.2286 24.115 81.8086 21.46 81.8086 18.43ZM93.5536 16.585L92.7436 17.8C94.4536 18.61 96.3886 19.15 98.5486 19.42C100.709 19.69 102.869 19.825 105.029 19.825V18.475C102.869 18.475 100.799 18.34 98.8186 18.07C96.8686 17.77 95.1136 17.275 93.5536 16.585Z" fill="#252525"/>
<path d="M79.0634 0.835022V36.025H62.7284V28.015H61.1534V36.025H44.8184V0.835022H61.1534V8.84502H62.7284V0.835022H79.0634Z" fill="#252525"/>
<path d="M5.4 35.98L0 0.835022H13.95L15.39 12.67L17.55 0.835022H25.65L27.81 12.67L29.25 0.835022H43.2L37.8 35.98H23.85L21.6 25.675L19.35 35.98H5.4Z" fill="#252525"/>
</svg>
