<svg width="154" height="16" viewBox="0 0 154 16" fill="none" xmlns="http://www.w3.org/2000/svg">
<path d="M152.838 7.06447V8.63011H144.571V13.8807H153.392V15.4272H142.662V0.591919H153.201V2.15755H144.571V7.06447H152.838Z" fill="#242424"/>
<path d="M126.487 7.99987C126.487 6.86701 126.678 5.82325 127.06 4.8686C127.455 3.91395 127.989 3.09294 128.664 2.40559C129.339 1.70551 130.14 1.16454 131.07 0.782681C131.999 0.388091 132.998 0.190796 134.067 0.190796C135.378 0.190796 136.588 0.502649 137.695 1.12636C138.815 1.73734 139.744 2.59652 140.483 3.70392L139.108 4.69676C138.573 3.83121 137.867 3.12477 136.988 2.57743C136.123 2.01737 135.13 1.73733 134.01 1.73733C133.208 1.73733 132.463 1.90281 131.776 2.23376C131.089 2.5647 130.497 3.01657 130 3.58936C129.504 4.14943 129.109 4.81132 128.817 5.57504C128.537 6.32604 128.397 7.13431 128.397 7.99987C128.397 8.87815 128.543 9.69915 128.836 10.4629C129.141 11.2266 129.561 11.8885 130.096 12.4486C130.63 13.0086 131.267 13.4478 132.005 13.766C132.756 14.0842 133.577 14.2433 134.468 14.2433C135.499 14.2433 136.409 13.9696 137.199 13.4223C138 12.875 138.675 12.1494 139.222 11.2457L140.559 12.2958C139.846 13.3777 138.936 14.2306 137.829 14.8543C136.721 15.4907 135.467 15.8089 134.067 15.8089C133.062 15.8089 132.101 15.6244 131.184 15.2552C130.268 14.8988 129.459 14.377 128.759 13.6896C128.072 13.015 127.518 12.2003 127.098 11.2457C126.691 10.2783 126.487 9.19637 126.487 7.99987Z" fill="#242424"/>
<path d="M117.812 0.591919H119.76L125.564 15.4272H123.578L121.459 10.0048L115.445 11.685L113.994 15.4272H112.008L117.812 0.591919ZM116.094 10.0048L120.943 8.6492L118.786 3.07402L116.094 10.0048Z" fill="#242424"/>
<path d="M100.597 0.591919H102.507V13.8616H110.927V15.4272H100.597V0.591919Z" fill="#242424"/>
<path d="M86.1658 0.591919H93.5739C94.1594 0.591919 94.7258 0.674656 95.2732 0.840129C95.8205 1.0056 96.3042 1.25381 96.7242 1.58476C97.1443 1.91571 97.4816 2.33575 97.7362 2.8449C97.9908 3.34132 98.118 3.93321 98.118 4.62056C98.118 5.29518 98.0035 5.86161 97.7744 6.31984C97.558 6.77808 97.2525 7.15994 96.8579 7.46543C96.476 7.77092 96.0114 8.01913 95.4641 8.21006C94.9295 8.38826 94.3503 8.54737 93.7266 8.68738L88.0751 10.043V15.4272H86.1658V0.591919ZM96.2278 4.62056C96.2278 4.22597 96.1514 3.87593 95.9987 3.57044C95.846 3.26495 95.6359 3.01038 95.3686 2.80672C95.1013 2.59033 94.7831 2.43122 94.414 2.32939C94.0576 2.21483 93.663 2.15755 93.2302 2.15755H88.0751V8.30552L92.982 7.2745C94.0894 7.03265 94.904 6.71443 95.4259 6.31984C95.9605 5.91252 96.2278 5.3461 96.2278 4.62056Z" fill="#242424"/>
<path d="M74.5414 15.6183L69.9208 9.16485V15.6183H65.9495V0.401123H69.9208V6.12905L74.5414 0.401123H78.9137L73.033 7.69468L78.9137 15.6183H74.5414Z" fill="#242424"/>
<path d="M48.6561 8C48.6561 6.82896 48.8661 5.75338 49.2861 4.77327C49.7189 3.79316 50.3044 2.95306 51.0427 2.25298C51.7937 1.54017 52.6783 0.986475 53.6966 0.591885C54.7149 0.197295 55.8096 0 56.9807 0C58.559 0 59.921 0.324582 61.0666 0.973747C62.2122 1.61018 63.2432 2.55847 64.1596 3.81862L61.5439 6.01432C61.0729 5.17422 60.4747 4.50597 59.7491 4.00955C59.0363 3.51313 58.1453 3.26492 57.0761 3.26492C56.4142 3.26492 55.8096 3.38584 55.2623 3.62768C54.7149 3.86953 54.244 4.20684 53.8494 4.63962C53.4675 5.05967 53.1684 5.56245 52.952 6.14797C52.7356 6.72076 52.6274 7.33811 52.6274 8C52.6274 8.66189 52.7293 9.27924 52.9329 9.85203C53.1493 10.4248 53.4548 10.9276 53.8494 11.3604C54.244 11.7804 54.7149 12.1114 55.2623 12.3532C55.8223 12.5951 56.4397 12.716 57.1143 12.716C57.6616 12.716 58.1517 12.6523 58.5845 12.5251C59.03 12.3978 59.4309 12.2132 59.7873 11.9714C60.1565 11.7295 60.4874 11.4368 60.7802 11.0931C61.0857 10.7494 61.3657 10.3612 61.6203 9.9284L64.1787 12.2005C63.3132 13.4097 62.3013 14.3453 61.1429 15.0072C59.9974 15.6691 58.6099 16 56.9807 16C55.8096 16 54.7149 15.8027 53.6966 15.4081C52.6783 15.0135 51.7937 14.4598 51.0427 13.747C50.3044 13.0469 49.7189 12.2068 49.2861 11.2267C48.8661 10.2466 48.6561 9.17104 48.6561 8Z" fill="#242424"/>
<path d="M30.0477 7.98091C30.0477 6.82259 30.2578 5.75338 30.6778 4.77327C31.1106 3.79316 31.6961 2.95306 32.4344 2.25298C33.1854 1.54017 34.07 0.986475 35.0883 0.591885C36.1066 0.197295 37.214 0 38.4105 0C39.6197 0 40.7335 0.197295 41.7518 0.591885C42.7701 0.986475 43.6484 1.54017 44.3866 2.25298C45.1376 2.95306 45.7168 3.79316 46.1241 4.77327C46.5442 5.75338 46.7542 6.82259 46.7542 7.98091C46.7542 9.15195 46.5442 10.2275 46.1241 11.2076C45.7168 12.1877 45.1376 13.0342 44.3866 13.747C43.6484 14.4598 42.7701 15.0135 41.7518 15.4081C40.7335 15.8027 39.6197 16 38.4105 16C37.214 16 36.1066 15.8027 35.0883 15.4081C34.07 15.0135 33.1854 14.4598 32.4344 13.747C31.6961 13.0342 31.1106 12.1877 30.6778 11.2076C30.2578 10.2275 30.0477 9.15195 30.0477 7.98091ZM34.0191 7.98091C34.0191 8.68099 34.1209 9.32379 34.3246 9.90931C34.541 10.4821 34.8401 10.9785 35.222 11.3986C35.6038 11.8186 36.0621 12.1496 36.5967 12.3914C37.144 12.6205 37.7486 12.7351 38.4105 12.7351C39.0724 12.7351 39.6706 12.6205 40.2053 12.3914C40.7526 12.1496 41.2172 11.8186 41.599 11.3986C41.9809 10.9785 42.2737 10.4821 42.4773 9.90931C42.6937 9.32379 42.8019 8.68099 42.8019 7.98091C42.8019 7.30629 42.6937 6.68258 42.4773 6.10979C42.2737 5.53699 41.9809 5.04057 41.599 4.62053C41.2172 4.20048 40.7526 3.87589 40.2053 3.64678C39.6706 3.40493 39.0724 3.28401 38.4105 3.28401C37.7486 3.28401 37.144 3.40493 36.5967 3.64678C36.0621 3.87589 35.6038 4.20048 35.222 4.62053C34.8401 5.04057 34.541 5.53699 34.3246 6.10979C34.1209 6.68258 34.0191 7.30629 34.0191 7.98091Z" fill="#242424"/>
<path d="M14.6741 0.401123H18.6455L24.3543 9.62308V0.401123H28.3257V15.6183H24.3543L18.6455 6.22451V15.6183H14.6741V0.401123Z" fill="#242424"/>
<path d="M8.59189 15.6183L3.97136 9.16485V15.6183H0V0.401123H3.97136V6.12905L8.59189 0.401123H12.9642L7.08353 7.69468L12.9642 15.6183H8.59189Z" fill="#242424"/>
</svg>
