<svg width="141" height="29" viewBox="0 0 141 29" fill="none" xmlns="http://www.w3.org/2000/svg">
<path d="M0.176752 5.352V4.488H5.32875V5.352L4.12875 5.496L5.95275 9.544L7.79275 5.528L6.68875 5.352V4.488H10.0008V5.352L8.83275 5.544L6.41675 10.456C6.41675 11.2667 6.41675 11.9387 6.41675 12.472C6.41675 13.0053 6.42209 13.512 6.43275 13.992L7.82475 14.136V15H2.33675V14.136L3.71275 13.992C3.72342 13.5547 3.72875 13.096 3.72875 12.616C3.72875 12.136 3.72875 11.5547 3.72875 10.872L1.07275 5.448L0.176752 5.352ZM14.5663 6.936L13.2383 11.016H15.8623L14.5663 6.936ZM10.0703 15V14.136L11.3663 13.944L14.6143 4.472H16.2623L19.5423 14.056L20.5183 14.168V15H15.5743V14.168L16.8063 14.008L16.1503 11.944H12.9343L12.2943 13.944L13.5103 14.136V15H10.0703ZM29.0923 5.352V4.488H33.3003V5.352L31.9403 5.56V15.032H30.5963L24.9643 7.224V13.928L26.7883 14.136V15H22.5643V14.136L23.9243 13.944V5.768L23.7003 5.464L22.5963 5.352V4.488H26.2123L30.9163 10.952V5.56L29.0923 5.352ZM40.9644 15.304C39.8657 15.304 38.9004 15.08 38.0684 14.632C37.2364 14.184 36.5857 13.544 36.1164 12.712C35.6577 11.88 35.4284 10.8827 35.4284 9.72C35.4284 8.6 35.6524 7.62933 36.1004 6.808C36.5484 5.976 37.199 5.33067 38.0524 4.872C38.9164 4.41333 39.951 4.184 41.1564 4.184C41.679 4.184 42.207 4.248 42.7404 4.376C43.2844 4.49333 43.7857 4.67467 44.2444 4.92L44.3084 7.416H43.0764L42.6124 5.336C42.2284 5.176 41.8444 5.096 41.4604 5.096C40.8844 5.096 40.351 5.26133 39.8604 5.592C39.3804 5.92267 38.991 6.42933 38.6924 7.112C38.4044 7.784 38.2604 8.65333 38.2604 9.72C38.2604 10.776 38.399 11.6507 38.6764 12.344C38.9644 13.0373 39.3484 13.5547 39.8284 13.896C40.3084 14.2267 40.8417 14.392 41.4284 14.392C41.663 14.392 41.8657 14.3707 42.0364 14.328V13.64C42.0364 13.1707 42.031 12.7067 42.0204 12.248C42.0204 11.7893 42.015 11.3307 42.0044 10.872L40.5644 10.68V9.816H45.4444V10.68L44.6124 10.792C44.6017 11.272 44.591 11.752 44.5804 12.232C44.5804 12.7013 44.5804 13.1867 44.5804 13.688V14.36C44.0257 14.68 43.4604 14.9147 42.8844 15.064C42.3084 15.224 41.6684 15.304 40.9644 15.304ZM51.1373 15.304C50.5399 15.304 49.9266 15.2347 49.2973 15.096C48.6679 14.9573 48.1239 14.744 47.6653 14.456L47.7613 12.088H49.2493L49.5693 14.056C49.8146 14.152 50.0599 14.2267 50.3053 14.28C50.5506 14.3227 50.8226 14.344 51.1213 14.344C51.6973 14.344 52.1346 14.2 52.4333 13.912C52.7319 13.6133 52.8813 13.2507 52.8813 12.824C52.8813 12.3973 52.7693 12.0667 52.5453 11.832C52.3319 11.5973 51.9853 11.3733 51.5053 11.16L50.8173 10.856C49.8786 10.4187 49.1479 9.93333 48.6253 9.4C48.1133 8.86667 47.8573 8.15733 47.8573 7.272C47.8573 6.312 48.2146 5.56 48.9293 5.016C49.6546 4.46133 50.6199 4.184 51.8253 4.184C52.4013 4.184 52.9506 4.25867 53.4733 4.408C54.0066 4.54667 54.4653 4.744 54.8493 5L54.7213 7.24H53.2493L52.9453 5.352C52.7746 5.288 52.6039 5.24 52.4333 5.208C52.2626 5.16533 52.0759 5.144 51.8733 5.144C51.4146 5.144 51.0253 5.27733 50.7053 5.544C50.3853 5.81067 50.2253 6.16267 50.2253 6.6C50.2253 7.02667 50.3479 7.368 50.5933 7.624C50.8493 7.86933 51.2119 8.09867 51.6813 8.312L52.4333 8.648C53.4466 9.10667 54.1773 9.592 54.6253 10.104C55.0839 10.6053 55.3133 11.2613 55.3133 12.072C55.3133 13.0107 54.9559 13.784 54.2413 14.392C53.5373 15 52.5026 15.304 51.1373 15.304ZM61.42 6.936L60.092 11.016H62.716L61.42 6.936ZM56.924 15V14.136L58.22 13.944L61.468 4.472H63.116L66.396 14.056L67.372 14.168V15H62.428V14.168L63.66 14.008L63.004 11.944H59.788L59.148 13.944L60.364 14.136V15H56.924ZM75.946 5.352V4.488H80.154V5.352L78.794 5.56V15.032H77.45L71.818 7.224V13.928L73.642 14.136V15H69.418V14.136L70.778 13.944V5.768L70.554 5.464L69.45 5.352V4.488H73.066L77.77 10.952V5.56L75.946 5.352ZM87.8181 15.304C86.7195 15.304 85.7541 15.08 84.9221 14.632C84.0901 14.184 83.4395 13.544 82.9701 12.712C82.5115 11.88 82.2821 10.8827 82.2821 9.72C82.2821 8.6 82.5061 7.62933 82.9541 6.808C83.4021 5.976 84.0528 5.33067 84.9061 4.872C85.7701 4.41333 86.8048 4.184 88.0101 4.184C88.5328 4.184 89.0608 4.248 89.5941 4.376C90.1381 4.49333 90.6395 4.67467 91.0981 4.92L91.1621 7.416H89.9301L89.4661 5.336C89.0821 5.176 88.6981 5.096 88.3141 5.096C87.7381 5.096 87.2048 5.26133 86.7141 5.592C86.2341 5.92267 85.8448 6.42933 85.5461 7.112C85.2581 7.784 85.1141 8.65333 85.1141 9.72C85.1141 10.776 85.2528 11.6507 85.5301 12.344C85.8181 13.0373 86.2021 13.5547 86.6821 13.896C87.1621 14.2267 87.6955 14.392 88.2821 14.392C88.5168 14.392 88.7195 14.3707 88.8901 14.328V13.64C88.8901 13.1707 88.8848 12.7067 88.8741 12.248C88.8741 11.7893 88.8688 11.3307 88.8581 10.872L87.4181 10.68V9.816H92.2981V10.68L91.4661 10.792C91.4555 11.272 91.4448 11.752 91.4341 12.232C91.4341 12.7013 91.4341 13.1867 91.4341 13.688V14.36C90.8795 14.68 90.3141 14.9147 89.7381 15.064C89.1621 15.224 88.5221 15.304 87.8181 15.304ZM100.211 15.304C99.1126 15.304 98.1473 15.08 97.3153 14.632C96.4833 14.184 95.8326 13.544 95.3633 12.712C94.9046 11.88 94.6753 10.8827 94.6753 9.72C94.6753 8.6 94.8993 7.62933 95.3473 6.808C95.7953 5.976 96.4459 5.33067 97.2993 4.872C98.1633 4.41333 99.1979 4.184 100.403 4.184C100.926 4.184 101.454 4.248 101.987 4.376C102.531 4.49333 103.033 4.67467 103.491 4.92L103.555 7.416H102.323L101.859 5.336C101.475 5.176 101.091 5.096 100.707 5.096C100.131 5.096 99.5979 5.26133 99.1073 5.592C98.6273 5.92267 98.2379 6.42933 97.9393 7.112C97.6513 7.784 97.5073 8.65333 97.5073 9.72C97.5073 10.776 97.6459 11.6507 97.9233 12.344C98.2113 13.0373 98.5953 13.5547 99.0753 13.896C99.5553 14.2267 100.089 14.392 100.675 14.392C100.91 14.392 101.113 14.3707 101.283 14.328V13.64C101.283 13.1707 101.278 12.7067 101.267 12.248C101.267 11.7893 101.262 11.3307 101.251 10.872L99.8113 10.68V9.816H104.691V10.68L103.859 10.792C103.849 11.272 103.838 11.752 103.827 12.232C103.827 12.7013 103.827 13.1867 103.827 13.688V14.36C103.273 14.68 102.707 14.9147 102.131 15.064C101.555 15.224 100.915 15.304 100.211 15.304ZM106.74 5.352V4.488H114.9L115.012 7.24H113.684L113.364 5.384H110.692C110.681 5.992 110.671 6.60533 110.66 7.224C110.66 7.84267 110.66 8.46667 110.66 9.096H112.388L112.58 7.848H113.508V11.288H112.58L112.388 10.04H110.66C110.66 10.776 110.66 11.4747 110.66 12.136C110.671 12.7973 110.681 13.4533 110.692 14.104H113.684L114.004 12.248H115.332L115.22 15H106.74V14.136L107.94 14.008C107.961 13.3573 107.972 12.7013 107.972 12.04C107.972 11.3787 107.972 10.712 107.972 10.04V9.448C107.972 8.78667 107.972 8.12533 107.972 7.464C107.972 6.792 107.961 6.13067 107.94 5.48L106.74 5.352ZM122.565 15.304C121.903 15.304 121.269 15.192 120.661 14.968C120.053 14.7333 119.509 14.3867 119.029 13.928C118.559 13.4587 118.186 12.8773 117.909 12.184C117.631 11.4907 117.493 10.6747 117.493 9.736C117.493 8.81867 117.631 8.01333 117.909 7.32C118.186 6.62667 118.565 6.05067 119.045 5.592C119.525 5.12267 120.069 4.77067 120.677 4.536C121.285 4.30133 121.914 4.184 122.565 4.184C123.226 4.184 123.855 4.30133 124.453 4.536C125.061 4.76 125.605 5.10133 126.085 5.56C126.565 6.01867 126.943 6.6 127.221 7.304C127.498 7.99733 127.637 8.808 127.637 9.736C127.637 10.664 127.498 11.4747 127.221 12.168C126.943 12.8613 126.565 13.4427 126.085 13.912C125.615 14.3707 125.077 14.7173 124.469 14.952C123.861 15.1867 123.226 15.304 122.565 15.304ZM122.565 14.376C123.109 14.376 123.541 14.1733 123.861 13.768C124.191 13.3627 124.431 12.8133 124.581 12.12C124.73 11.416 124.805 10.6213 124.805 9.736C124.805 8.85067 124.73 8.06133 124.581 7.368C124.431 6.67467 124.191 6.12533 123.861 5.72C123.541 5.31467 123.109 5.112 122.565 5.112C122.031 5.112 121.599 5.31467 121.269 5.72C120.938 6.12533 120.698 6.67467 120.549 7.368C120.399 8.06133 120.325 8.85067 120.325 9.736C120.325 10.6213 120.399 11.416 120.549 12.12C120.698 12.8133 120.938 13.3627 121.269 13.768C121.599 14.1733 122.031 14.376 122.565 14.376ZM136.287 5.352V4.488H140.495V5.352L139.135 5.56V15.032H137.791L132.159 7.224V13.928L133.983 14.136V15H129.759V14.136L131.119 13.944V5.768L130.895 5.464L129.791 5.352V4.488H133.407L138.111 10.952V5.56L136.287 5.352Z" fill="#242424"/>
<path d="M52.5174 21.176V20.744H54.3734V21.176L53.6134 21.272L52.5574 22.536L54.1334 25.512L54.6214 25.568V26H52.3094V25.568L52.6934 25.528L51.7094 23.536L51.2534 24.08C51.2534 24.3093 51.2534 24.544 51.2534 24.784C51.2588 25.024 51.2641 25.264 51.2694 25.504L51.7894 25.568V26H49.3574V25.568L49.9574 25.504C49.9681 25.1787 49.9734 24.8507 49.9734 24.52C49.9734 24.1893 49.9734 23.856 49.9734 23.52V23.224C49.9734 22.8933 49.9734 22.5627 49.9734 22.232C49.9734 21.896 49.9681 21.5653 49.9574 21.24L49.3574 21.176V20.744H51.8774V21.176L51.2694 21.24C51.2641 21.5653 51.2588 21.8933 51.2534 22.224C51.2534 22.5547 51.2534 22.888 51.2534 23.224V23.488L53.0454 21.272L52.5174 21.176ZM61.0696 26.152C60.7389 26.152 60.4216 26.096 60.1176 25.984C59.8136 25.8667 59.5416 25.6933 59.3016 25.464C59.0669 25.2293 58.8802 24.9387 58.7416 24.592C58.6029 24.2453 58.5336 23.8373 58.5336 23.368C58.5336 22.9093 58.6029 22.5067 58.7416 22.16C58.8802 21.8133 59.0696 21.5253 59.3096 21.296C59.5496 21.0613 59.8216 20.8853 60.1256 20.768C60.4296 20.6507 60.7442 20.592 61.0696 20.592C61.4002 20.592 61.7149 20.6507 62.0136 20.768C62.3176 20.88 62.5896 21.0507 62.8296 21.28C63.0696 21.5093 63.2589 21.8 63.3976 22.152C63.5362 22.4987 63.6056 22.904 63.6056 23.368C63.6056 23.832 63.5362 24.2373 63.3976 24.584C63.2589 24.9307 63.0696 25.2213 62.8296 25.456C62.5949 25.6853 62.3256 25.8587 62.0216 25.976C61.7176 26.0933 61.4002 26.152 61.0696 26.152ZM61.0696 25.688C61.3416 25.688 61.5576 25.5867 61.7176 25.384C61.8829 25.1813 62.0029 24.9067 62.0776 24.56C62.1522 24.208 62.1896 23.8107 62.1896 23.368C62.1896 22.9253 62.1522 22.5307 62.0776 22.184C62.0029 21.8373 61.8829 21.5627 61.7176 21.36C61.5576 21.1573 61.3416 21.056 61.0696 21.056C60.8029 21.056 60.5869 21.1573 60.4216 21.36C60.2562 21.5627 60.1362 21.8373 60.0616 22.184C59.9869 22.5307 59.9496 22.9253 59.9496 23.368C59.9496 23.8107 59.9869 24.208 60.0616 24.56C60.1362 24.9067 60.2562 25.1813 60.4216 25.384C60.5869 25.5867 60.8029 25.688 61.0696 25.688ZM70.1454 21.208H69.8254C69.82 21.5387 69.8147 21.8693 69.8094 22.2C69.8094 22.5253 69.8094 22.8373 69.8094 23.136H70.1134C70.38 23.136 70.588 23.0907 70.7374 23C70.8867 22.9093 70.9934 22.7893 71.0574 22.64C71.1214 22.4907 71.1534 22.3307 71.1534 22.16C71.1534 21.5253 70.8174 21.208 70.1454 21.208ZM67.8734 21.176V20.744H70.4734C71.1027 20.744 71.5854 20.8613 71.9214 21.096C72.2627 21.3307 72.4334 21.656 72.4334 22.072C72.4334 22.248 72.388 22.424 72.2974 22.6C72.2067 22.7707 72.0574 22.9227 71.8494 23.056C71.6414 23.184 71.3587 23.2773 71.0014 23.336C71.3054 23.3733 71.5427 23.448 71.7134 23.56C71.884 23.6667 72.012 23.808 72.0974 23.984C72.1827 24.1547 72.244 24.3653 72.2814 24.616L72.4334 25.504L73.0414 25.568V26C72.9134 26.0267 72.8067 26.048 72.7214 26.064C72.636 26.0853 72.5507 26.0987 72.4654 26.104C72.3854 26.1093 72.284 26.112 72.1614 26.112C71.82 26.112 71.5507 26.0533 71.3534 25.936C71.1614 25.8187 71.044 25.6053 71.0014 25.296L70.8574 24.368C70.82 24.1013 70.7427 23.904 70.6254 23.776C70.5134 23.648 70.3374 23.584 70.0974 23.584H69.8094C69.8094 23.9253 69.8094 24.2533 69.8094 24.568C69.8147 24.8827 69.82 25.1947 69.8254 25.504L70.4494 25.568V26H67.8734V25.568L68.4734 25.504C68.484 25.1787 68.4894 24.8507 68.4894 24.52C68.4894 24.1893 68.4894 23.856 68.4894 23.52V23.224C68.4894 22.8933 68.4894 22.5627 68.4894 22.232C68.4894 21.896 68.484 21.5653 68.4734 21.24L67.8734 21.176ZM77.1743 21.176V20.744H81.2543L81.3103 22.12H80.6463L80.4863 21.192H79.1503C79.145 21.496 79.1396 21.8027 79.1343 22.112C79.1343 22.4213 79.1343 22.7333 79.1343 23.048H79.9983L80.0943 22.424H80.5583V24.144H80.0943L79.9983 23.52H79.1343C79.1343 23.888 79.1343 24.2373 79.1343 24.568C79.1396 24.8987 79.145 25.2267 79.1503 25.552H80.6463L80.8063 24.624H81.4703L81.4143 26H77.1743V25.568L77.7743 25.504C77.785 25.1787 77.7903 24.8507 77.7903 24.52C77.7903 24.1893 77.7903 23.856 77.7903 23.52V23.224C77.7903 22.8933 77.7903 22.5627 77.7903 22.232C77.7903 21.896 77.785 21.5653 77.7743 21.24L77.1743 21.176ZM87.8281 21.968L87.1641 24.008H88.4761L87.8281 21.968ZM85.5801 26V25.568L86.2281 25.472L87.8521 20.736H88.6761L90.3161 25.528L90.8041 25.584V26H88.3321V25.584L88.9481 25.504L88.6201 24.472H87.0121L86.6921 25.472L87.3001 25.568V26H85.5801Z" fill="#242424"/>
</svg>
