<svg width="140" height="140" viewBox="0 0 140 140" fill="none" xmlns="http://www.w3.org/2000/svg">
<rect width="140" height="140" fill="#E7E4DE"/>
<path d="M101.695 47.0848V91.5593H82.7568V47.0848H101.695Z" fill="black"/>
<path d="M55.7915 75.0093C52.7962 74.7818 50.2559 74.3837 48.1706 73.815C46.0853 73.2463 44.3601 72.5828 42.9952 71.8245C41.6681 71.0282 40.6255 70.1752 39.8672 69.2652C39.1089 68.3552 38.5591 67.4453 38.2179 66.5353C37.8766 65.6253 37.6681 64.7533 37.5923 63.9192C37.5164 63.0471 37.4785 62.2698 37.4785 61.5874C37.4785 59.1608 37.9904 56.9996 39.0141 55.1039C40.0378 53.1702 41.4596 51.5588 43.2795 50.2697C45.1374 48.9427 47.3365 47.9379 49.8768 47.2554C52.455 46.5351 55.2797 46.1749 58.3508 46.1749C62.3698 46.1749 66.0665 46.6678 69.441 47.6536C72.8534 48.6014 75.9245 49.8147 78.6544 51.2934V65.2841C76.8724 64.2604 75.1093 63.4452 73.3652 62.8386C71.659 62.2319 69.9718 61.7769 68.3035 61.4736C66.6353 61.1703 64.967 60.9807 63.2987 60.9049C61.6305 60.7912 59.9812 60.7343 58.3508 60.7343V62.3267C64.948 62.3267 70.0666 63.3883 73.7064 65.5116C77.3842 67.6348 79.2231 70.9903 79.2231 75.5781C79.2231 78.1563 78.7681 80.4881 77.8582 82.5734C76.9482 84.6587 75.6212 86.4408 73.8771 87.9194C72.133 89.3602 70.0097 90.4787 67.5073 91.2749C65.0049 92.0712 62.1423 92.4693 58.9195 92.4693C55.583 92.4693 52.1706 91.9195 48.6824 90.82C45.1942 89.7583 41.6492 87.9194 38.0472 85.3033V72.4501C40.7771 73.7392 43.6776 74.7629 46.7488 75.5212C49.8578 76.2416 52.8721 76.6018 55.7915 76.6018V75.0093Z" fill="black"/>
</svg>
