<svg width="141" height="24" viewBox="0 0 141 24" fill="none" xmlns="http://www.w3.org/2000/svg">
<path d="M136.287 1.35191V0.487915H140.495V1.35191L139.135 1.55991V11.0319H137.791L132.159 3.22391V9.92791L133.983 10.1359V10.9999H129.759V10.1359L131.119 9.94392V1.76791L130.895 1.46391L129.791 1.35191V0.487915H133.407L138.111 6.95191V1.55991L136.287 1.35191Z" fill="#242424"/>
<path d="M122.565 11.304C121.903 11.304 121.269 11.192 120.661 10.968C120.053 10.7333 119.509 10.3866 119.029 9.92796C118.559 9.45863 118.186 8.87729 117.909 8.18396C117.631 7.49063 117.493 6.67463 117.493 5.73596C117.493 4.81863 117.631 4.01329 117.909 3.31996C118.186 2.62663 118.565 2.05063 119.045 1.59196C119.525 1.12263 120.069 0.770627 120.677 0.53596C121.285 0.301293 121.914 0.18396 122.565 0.18396C123.226 0.18396 123.855 0.301293 124.453 0.53596C125.061 0.75996 125.605 1.10129 126.085 1.55996C126.565 2.01863 126.943 2.59996 127.221 3.30396C127.498 3.99729 127.637 4.80796 127.637 5.73596C127.637 6.66396 127.498 7.47463 127.221 8.16796C126.943 8.86129 126.565 9.44263 126.085 9.91196C125.615 10.3706 125.077 10.7173 124.469 10.952C123.861 11.1866 123.226 11.304 122.565 11.304ZM122.565 10.376C123.109 10.376 123.541 10.1733 123.861 9.76796C124.191 9.36263 124.431 8.81329 124.581 8.11996C124.73 7.41596 124.805 6.62129 124.805 5.73596C124.805 4.85063 124.73 4.06129 124.581 3.36796C124.431 2.67463 124.191 2.12529 123.861 1.71996C123.541 1.31463 123.109 1.11196 122.565 1.11196C122.031 1.11196 121.599 1.31463 121.269 1.71996C120.938 2.12529 120.698 2.67463 120.549 3.36796C120.399 4.06129 120.325 4.85063 120.325 5.73596C120.325 6.62129 120.399 7.41596 120.549 8.11996C120.698 8.81329 120.938 9.36263 121.269 9.76796C121.599 10.1733 122.031 10.376 122.565 10.376Z" fill="#242424"/>
<path d="M106.74 1.35191V0.487915H114.9L115.012 3.23991H113.684L113.364 1.38391H110.692C110.681 1.99191 110.671 2.60525 110.66 3.22391C110.66 3.84258 110.66 4.46658 110.66 5.09591H112.388L112.58 3.84791H113.508V7.28792H112.58L112.388 6.03992H110.66C110.66 6.77591 110.66 7.47458 110.66 8.13591C110.671 8.79725 110.681 9.45325 110.692 10.1039H113.684L114.004 8.24792H115.332L115.22 10.9999H106.74V10.1359L107.94 10.0079C107.961 9.35725 107.972 8.70125 107.972 8.03992C107.972 7.37858 107.972 6.71192 107.972 6.03992V5.44792C107.972 4.78658 107.972 4.12525 107.972 3.46391C107.972 2.79191 107.961 2.13058 107.94 1.47991L106.74 1.35191Z" fill="#242424"/>
<path d="M100.211 11.304C99.1126 11.304 98.1473 11.08 97.3153 10.632C96.4833 10.184 95.8326 9.54396 95.3633 8.71196C94.9046 7.87996 94.6753 6.88263 94.6753 5.71996C94.6753 4.59996 94.8993 3.62929 95.3473 2.80796C95.7953 1.97596 96.446 1.33063 97.2993 0.871961C98.1633 0.413294 99.198 0.18396 100.403 0.18396C100.926 0.18396 101.454 0.24796 101.987 0.37596C102.531 0.493293 103.033 0.674627 103.491 0.91996L103.555 3.41596H102.323L101.859 1.33596C101.475 1.17596 101.091 1.09596 100.707 1.09596C100.131 1.09596 99.598 1.26129 99.1073 1.59196C98.6273 1.92263 98.238 2.42929 97.9393 3.11196C97.6513 3.78396 97.5073 4.65329 97.5073 5.71996C97.5073 6.77596 97.646 7.65063 97.9233 8.34396C98.2113 9.03729 98.5953 9.55463 99.0753 9.89596C99.5553 10.2266 100.089 10.392 100.675 10.392C100.91 10.392 101.113 10.3706 101.283 10.328V9.63996C101.283 9.17063 101.278 8.70663 101.267 8.24796C101.267 7.78929 101.262 7.33063 101.251 6.87196L99.8113 6.67996V5.81596H104.691V6.67996L103.859 6.79196C103.849 7.27196 103.838 7.75196 103.827 8.23196C103.827 8.70129 103.827 9.18663 103.827 9.68796V10.36C103.273 10.68 102.707 10.9146 102.131 11.064C101.555 11.224 100.915 11.304 100.211 11.304Z" fill="#242424"/>
<path d="M87.8182 11.304C86.7196 11.304 85.7542 11.08 84.9222 10.632C84.0902 10.184 83.4396 9.54396 82.9702 8.71196C82.5116 7.87996 82.2822 6.88263 82.2822 5.71996C82.2822 4.59996 82.5062 3.62929 82.9542 2.80796C83.4022 1.97596 84.0529 1.33063 84.9062 0.871961C85.7702 0.413294 86.8049 0.18396 88.0102 0.18396C88.5329 0.18396 89.0609 0.24796 89.5942 0.37596C90.1382 0.493293 90.6396 0.674627 91.0982 0.91996L91.1622 3.41596H89.9302L89.4662 1.33596C89.0822 1.17596 88.6982 1.09596 88.3142 1.09596C87.7382 1.09596 87.2049 1.26129 86.7142 1.59196C86.2342 1.92263 85.8449 2.42929 85.5462 3.11196C85.2582 3.78396 85.1142 4.65329 85.1142 5.71996C85.1142 6.77596 85.2529 7.65063 85.5302 8.34396C85.8182 9.03729 86.2022 9.55463 86.6822 9.89596C87.1622 10.2266 87.6956 10.392 88.2822 10.392C88.5169 10.392 88.7196 10.3706 88.8902 10.328V9.63996C88.8902 9.17063 88.8849 8.70663 88.8742 8.24796C88.8742 7.78929 88.8689 7.33063 88.8582 6.87196L87.4182 6.67996V5.81596H92.2982V6.67996L91.4662 6.79196C91.4556 7.27196 91.4449 7.75196 91.4342 8.23196C91.4342 8.70129 91.4342 9.18663 91.4342 9.68796V10.36C90.8796 10.68 90.3142 10.9146 89.7382 11.064C89.1622 11.224 88.5222 11.304 87.8182 11.304Z" fill="#242424"/>
<path d="M75.946 1.35191V0.487915H80.154V1.35191L78.794 1.55991V11.0319H77.45L71.818 3.22391V9.92791L73.642 10.1359V10.9999H69.418V10.1359L70.778 9.94392V1.76791L70.554 1.46391L69.45 1.35191V0.487915H73.066L77.77 6.95191V1.55991L75.946 1.35191Z" fill="#242424"/>
<path d="M61.4201 2.93592L60.0921 7.01592H62.7161L61.4201 2.93592ZM56.9241 10.9999V10.1359L58.2201 9.94392L61.4681 0.471924H63.1161L66.3961 10.0559L67.3721 10.1679V10.9999H62.4281V10.1679L63.6601 10.0079L63.0041 7.94392H59.7881L59.1481 9.94392L60.3641 10.1359V10.9999H56.9241Z" fill="#242424"/>
<path d="M51.1373 11.304C50.5399 11.304 49.9266 11.2346 49.2973 11.096C48.6679 10.9573 48.1239 10.744 47.6653 10.456L47.7613 8.08796H49.2493L49.5693 10.056C49.8146 10.152 50.06 10.2266 50.3053 10.28C50.5506 10.3226 50.8226 10.344 51.1213 10.344C51.6973 10.344 52.1346 10.2 52.4333 9.91196C52.732 9.61329 52.8813 9.25063 52.8813 8.82396C52.8813 8.39729 52.7693 8.06663 52.5453 7.83196C52.332 7.59729 51.9853 7.37329 51.5053 7.15996L50.8173 6.85596C49.8786 6.41863 49.148 5.93329 48.6253 5.39996C48.1133 4.86663 47.8573 4.15729 47.8573 3.27196C47.8573 2.31196 48.2146 1.55996 48.9293 1.01596C49.6546 0.461294 50.6199 0.18396 51.8253 0.18396C52.4013 0.18396 52.9506 0.258627 53.4733 0.40796C54.0066 0.546627 54.4653 0.74396 54.8493 0.999961L54.7213 3.23996H53.2493L52.9453 1.35196C52.7746 1.28796 52.604 1.23996 52.4333 1.20796C52.2626 1.16529 52.0759 1.14396 51.8733 1.14396C51.4146 1.14396 51.0253 1.27729 50.7053 1.54396C50.3853 1.81063 50.2253 2.16263 50.2253 2.59996C50.2253 3.02663 50.348 3.36796 50.5933 3.62396C50.8493 3.86929 51.212 4.09863 51.6813 4.31196L52.4333 4.64796C53.4466 5.10663 54.1773 5.59196 54.6253 6.10396C55.084 6.60529 55.3133 7.26129 55.3133 8.07196C55.3133 9.01063 54.956 9.78396 54.2413 10.392C53.5373 11 52.5026 11.304 51.1373 11.304Z" fill="#242424"/>
<path d="M40.9645 11.304C39.8658 11.304 38.9005 11.08 38.0685 10.632C37.2365 10.184 36.5858 9.54396 36.1165 8.71196C35.6578 7.87996 35.4285 6.88263 35.4285 5.71996C35.4285 4.59996 35.6525 3.62929 36.1005 2.80796C36.5485 1.97596 37.1991 1.33063 38.0525 0.871961C38.9165 0.413294 39.9511 0.18396 41.1565 0.18396C41.6791 0.18396 42.2071 0.24796 42.7405 0.37596C43.2845 0.493293 43.7858 0.674627 44.2445 0.91996L44.3085 3.41596H43.0765L42.6125 1.33596C42.2285 1.17596 41.8445 1.09596 41.4605 1.09596C40.8845 1.09596 40.3511 1.26129 39.8605 1.59196C39.3805 1.92263 38.9911 2.42929 38.6925 3.11196C38.4045 3.78396 38.2605 4.65329 38.2605 5.71996C38.2605 6.77596 38.3991 7.65063 38.6765 8.34396C38.9645 9.03729 39.3485 9.55463 39.8285 9.89596C40.3085 10.2266 40.8418 10.392 41.4285 10.392C41.6631 10.392 41.8658 10.3706 42.0365 10.328V9.63996C42.0365 9.17063 42.0311 8.70663 42.0205 8.24796C42.0205 7.78929 42.0151 7.33063 42.0045 6.87196L40.5645 6.67996V5.81596H45.4445V6.67996L44.6125 6.79196C44.6018 7.27196 44.5911 7.75196 44.5805 8.23196C44.5805 8.70129 44.5805 9.18663 44.5805 9.68796V10.36C44.0258 10.68 43.4605 10.9146 42.8845 11.064C42.3085 11.224 41.6685 11.304 40.9645 11.304Z" fill="#242424"/>
<path d="M29.0922 1.35191V0.487915H33.3002V1.35191L31.9402 1.55991V11.0319H30.5962L24.9642 3.22391V9.92791L26.7882 10.1359V10.9999H22.5642V10.1359L23.9242 9.94392V1.76791L23.7002 1.46391L22.5962 1.35191V0.487915H26.2122L30.9162 6.95191V1.55991L29.0922 1.35191Z" fill="#242424"/>
<path d="M14.5663 2.93592L13.2383 7.01592H15.8623L14.5663 2.93592ZM10.0703 10.9999V10.1359L11.3663 9.94392L14.6143 0.471924H16.2623L19.5423 10.0559L20.5183 10.1679V10.9999H15.5743V10.1679L16.8063 10.0079L16.1503 7.94392H12.9343L12.2943 9.94392L13.5103 10.1359V10.9999H10.0703Z" fill="#242424"/>
<path d="M0.176758 1.35191V0.487915H5.32876V1.35191L4.12876 1.49591L5.95276 5.54391L7.79276 1.52792L6.68876 1.35191V0.487915H10.0008V1.35191L8.83276 1.54391L6.41676 6.45591C6.41676 7.26658 6.41676 7.93858 6.41676 8.47192C6.41676 9.00525 6.42209 9.51191 6.43276 9.99191L7.82476 10.1359V10.9999H2.33676V10.1359L3.71276 9.99191C3.72342 9.55458 3.72876 9.09592 3.72876 8.61592C3.72876 8.13592 3.72876 7.55458 3.72876 6.87191L1.07276 1.44792L0.176758 1.35191Z" fill="#242424"/>
<path d="M91.8298 21.9999V21.6239L92.2618 21.5279C92.2671 21.3359 92.2698 21.1279 92.2698 20.9039C92.2698 20.6799 92.2698 20.4853 92.2698 20.3199V19.8559C92.2698 19.6373 92.2671 19.4693 92.2618 19.3519C92.2618 19.2293 92.2565 19.0879 92.2458 18.9279L91.7578 18.8559V18.5439L93.3338 18.0079L93.4778 18.0959L93.5258 18.6719C93.7338 18.4266 93.9391 18.2559 94.1418 18.1599C94.3498 18.0586 94.5711 18.0079 94.8058 18.0079C95.1525 18.0079 95.4298 18.1226 95.6378 18.3519C95.8511 18.5813 95.9578 18.9253 95.9578 19.3839V20.3199C95.9578 20.4959 95.9578 20.6959 95.9578 20.9199C95.9578 21.1386 95.9605 21.3466 95.9658 21.5439L96.3658 21.6239V21.9999H94.2538V21.6239L94.6698 21.5359C94.6751 21.3386 94.6778 21.1306 94.6778 20.9119C94.6778 20.6879 94.6778 20.4906 94.6778 20.3199V19.4799C94.6778 19.2239 94.6431 19.0453 94.5738 18.9439C94.5045 18.8373 94.3925 18.7839 94.2378 18.7839C94.0298 18.7839 93.8005 18.8799 93.5498 19.0719V20.3199C93.5498 20.4853 93.5498 20.6826 93.5498 20.9119C93.5498 21.1359 93.5525 21.3466 93.5578 21.5439L93.9338 21.6239V21.9999H91.8298Z" fill="#242424"/>
<path d="M85.5064 22.1199C85.0904 22.1199 84.7304 22.0346 84.4264 21.8639C84.1224 21.6879 83.8877 21.4453 83.7224 21.1359C83.557 20.8213 83.4744 20.4586 83.4744 20.0479C83.4744 19.6373 83.5624 19.2799 83.7384 18.9759C83.9197 18.6719 84.165 18.4346 84.4744 18.2639C84.7837 18.0933 85.1277 18.0079 85.5064 18.0079C85.885 18.0079 86.2264 18.0906 86.5304 18.2559C86.8397 18.4213 87.085 18.6586 87.2664 18.9679C87.4477 19.2719 87.5384 19.6319 87.5384 20.0479C87.5384 20.4639 87.4557 20.8266 87.2904 21.1359C87.125 21.4453 86.8904 21.6879 86.5864 21.8639C86.2824 22.0346 85.9224 22.1199 85.5064 22.1199ZM85.5064 21.7039C85.7304 21.7039 85.8984 21.5733 86.0104 21.3119C86.1224 21.0506 86.1784 20.6373 86.1784 20.0719C86.1784 19.5013 86.1224 19.0853 86.0104 18.8239C85.8984 18.5626 85.7304 18.4319 85.5064 18.4319C85.277 18.4319 85.1064 18.5626 84.9944 18.8239C84.8824 19.0853 84.8264 19.5013 84.8264 20.0719C84.8264 20.6373 84.8824 21.0506 84.9944 21.3119C85.1064 21.5733 85.277 21.7039 85.5064 21.7039Z" fill="#242424"/>
<path d="M77.4384 18.4239C77.2891 18.4239 77.1504 18.5173 77.0224 18.7039C76.8997 18.8853 76.8304 19.2213 76.8144 19.7119H77.4944C77.6864 19.7119 77.8144 19.6746 77.8784 19.5999C77.9477 19.5199 77.9824 19.3893 77.9824 19.2079C77.9824 18.9413 77.9291 18.7439 77.8224 18.6159C77.7157 18.4879 77.5877 18.4239 77.4384 18.4239ZM77.4544 22.1199C77.0651 22.1199 76.7211 22.0399 76.4224 21.8799C76.1237 21.7146 75.8891 21.4799 75.7184 21.1759C75.5477 20.8666 75.4624 20.4986 75.4624 20.0719C75.4624 19.6239 75.5611 19.2479 75.7584 18.9439C75.9611 18.6346 76.2197 18.4026 76.5344 18.2479C76.8491 18.0879 77.1771 18.0079 77.5184 18.0079C77.8704 18.0079 78.1691 18.0826 78.4144 18.2319C78.6651 18.3813 78.8544 18.5839 78.9824 18.8399C79.1104 19.0906 79.1744 19.3786 79.1744 19.7039C79.1744 19.8586 79.1584 19.9999 79.1264 20.1279H76.8144C76.8411 20.5493 76.9557 20.8613 77.1584 21.0639C77.3664 21.2613 77.6091 21.3599 77.8864 21.3599C78.1051 21.3599 78.2917 21.3199 78.4464 21.2399C78.6011 21.1546 78.7371 21.0506 78.8544 20.9279L79.1344 21.1839C78.9691 21.4986 78.7451 21.7333 78.4624 21.8879C78.1797 22.0426 77.8437 22.1199 77.4544 22.1199Z" fill="#242424"/>
<path d="M69.0174 23.8959C68.7347 23.8959 68.5081 23.8399 68.3374 23.7279C68.1667 23.6159 68.0521 23.4879 67.9934 23.3439C68.0147 23.1573 68.0921 23.0133 68.2254 22.9119C68.3587 22.8106 68.5054 22.7599 68.6654 22.7599C68.9587 22.7599 69.2014 22.9146 69.3934 23.2239L69.4894 23.3839C69.5214 23.3253 69.5454 23.2613 69.5614 23.1919C69.5934 23.0639 69.6094 22.8986 69.6094 22.6959C69.6147 22.4986 69.6121 22.2799 69.6014 22.0399C69.5961 21.8053 69.5934 21.5679 69.5934 21.3279V19.9359C69.5934 19.7173 69.5907 19.5359 69.5854 19.3919C69.5854 19.2426 69.5801 19.0879 69.5694 18.9279L69.0814 18.8559V18.5439L70.7454 18.0079L70.8814 18.0959L70.8574 19.2559V21.5679C70.8574 21.8879 70.8414 22.1573 70.8094 22.3759C70.7774 22.5946 70.7241 22.7786 70.6494 22.9279C70.5747 23.0826 70.4707 23.2266 70.3374 23.3599C70.1294 23.5679 69.9081 23.7093 69.6734 23.7839C69.4387 23.8586 69.2201 23.8959 69.0174 23.8959ZM70.2174 17.4159C70.0307 17.4159 69.8707 17.3573 69.7374 17.2399C69.6041 17.1173 69.5374 16.9653 69.5374 16.7839C69.5374 16.5973 69.6041 16.4453 69.7374 16.3279C69.8707 16.2053 70.0307 16.1439 70.2174 16.1439C70.4041 16.1439 70.5641 16.2053 70.6974 16.3279C70.8307 16.4453 70.8974 16.5973 70.8974 16.7839C70.8974 16.9653 70.8307 17.1173 70.6974 17.2399C70.5641 17.3573 70.4041 17.4159 70.2174 17.4159Z" fill="#242424"/>
<path d="M63.1335 18.4239C62.9841 18.4239 62.8455 18.5173 62.7175 18.7039C62.5948 18.8853 62.5255 19.2213 62.5095 19.7119H63.1895C63.3815 19.7119 63.5095 19.6746 63.5735 19.5999C63.6428 19.5199 63.6775 19.3893 63.6775 19.2079C63.6775 18.9413 63.6241 18.7439 63.5175 18.6159C63.4108 18.4879 63.2828 18.4239 63.1335 18.4239ZM63.1495 22.1199C62.7601 22.1199 62.4161 22.0399 62.1175 21.8799C61.8188 21.7146 61.5841 21.4799 61.4135 21.1759C61.2428 20.8666 61.1575 20.4986 61.1575 20.0719C61.1575 19.6239 61.2561 19.2479 61.4535 18.9439C61.6561 18.6346 61.9148 18.4026 62.2295 18.2479C62.5441 18.0879 62.8721 18.0079 63.2135 18.0079C63.5655 18.0079 63.8641 18.0826 64.1095 18.2319C64.3601 18.3813 64.5495 18.5839 64.6775 18.8399C64.8055 19.0906 64.8695 19.3786 64.8695 19.7039C64.8695 19.8586 64.8535 19.9999 64.8215 20.1279H62.5095C62.5361 20.5493 62.6508 20.8613 62.8535 21.0639C63.0615 21.2613 63.3041 21.3599 63.5815 21.3599C63.8001 21.3599 63.9868 21.3199 64.1415 21.2399C64.2961 21.1546 64.4321 21.0506 64.5495 20.9279L64.8295 21.1839C64.6641 21.4986 64.4401 21.7333 64.1575 21.8879C63.8748 22.0426 63.5388 22.1199 63.1495 22.1199Z" fill="#242424"/>
<path d="M56.1555 22.1119C55.6915 22.1119 55.3982 21.9199 55.2755 21.5359C55.1048 21.7173 54.9395 21.8613 54.7795 21.9679C54.6248 22.0693 54.4088 22.1199 54.1315 22.1199C53.8222 22.1199 53.5688 22.0319 53.3715 21.8559C53.1795 21.6799 53.0835 21.4266 53.0835 21.0959C53.0835 20.9039 53.1262 20.7306 53.2115 20.5759C53.2968 20.4213 53.4515 20.2773 53.6755 20.1439C53.8995 20.0106 54.2168 19.8853 54.6275 19.7679C54.7075 19.7413 54.8008 19.7146 54.9075 19.6879C55.0142 19.6613 55.1235 19.6346 55.2355 19.6079V19.3439C55.2355 18.9866 55.1902 18.7439 55.0995 18.6159C55.0142 18.4879 54.8435 18.4239 54.5875 18.4239C54.5502 18.4239 54.5155 18.4239 54.4835 18.4239C54.4515 18.4239 54.4142 18.4266 54.3715 18.4319L54.3315 18.7839C54.3262 19.0453 54.2648 19.2346 54.1475 19.3519C54.0355 19.4693 53.9022 19.5279 53.7475 19.5279C53.4542 19.5279 53.2755 19.3946 53.2115 19.1279C53.2328 18.7973 53.4008 18.5279 53.7155 18.3199C54.0302 18.1119 54.4755 18.0079 55.0515 18.0079C55.5635 18.0079 55.9288 18.1253 56.1475 18.3599C56.3715 18.5946 56.4835 18.9813 56.4835 19.5199V21.3119C56.4835 21.4666 56.5422 21.5439 56.6595 21.5439C56.7022 21.5439 56.7422 21.5333 56.7795 21.5119C56.8168 21.4853 56.8568 21.4373 56.8995 21.3679L57.1155 21.5119C57.0195 21.7253 56.8942 21.8799 56.7395 21.9759C56.5902 22.0666 56.3955 22.1119 56.1555 22.1119ZM54.2675 20.8879C54.2675 21.0853 54.3128 21.2319 54.4035 21.3279C54.4995 21.4239 54.6142 21.4719 54.7475 21.4719C54.8062 21.4719 54.8675 21.4586 54.9315 21.4319C54.9955 21.4053 55.0968 21.3439 55.2355 21.2479V19.9519C55.1662 19.9733 55.0968 19.9973 55.0275 20.0239C54.9635 20.0453 54.9075 20.0666 54.8595 20.0879C54.6782 20.1626 54.5342 20.2693 54.4275 20.4079C54.3208 20.5413 54.2675 20.7013 54.2675 20.8879Z" fill="#242424"/>
<path d="M45.6883 19.4879C45.6883 19.8346 45.6883 20.1786 45.6883 20.5199C45.6936 20.8612 45.6989 21.1999 45.7043 21.5359H45.9683C46.4269 21.5359 46.7869 21.3492 47.0483 20.9759C47.3149 20.5972 47.4483 20.0612 47.4483 19.3679C47.4483 18.6639 47.3149 18.1279 47.0483 17.7599C46.7869 17.3919 46.4296 17.2079 45.9763 17.2079H45.7043C45.6989 17.5386 45.6936 17.8719 45.6883 18.2079C45.6883 18.5439 45.6883 18.8826 45.6883 19.2239V19.4879ZM43.7283 17.1759V16.7439H46.1043C46.6749 16.7439 47.1629 16.8506 47.5683 17.0639C47.9736 17.2719 48.2856 17.5706 48.5043 17.9599C48.7229 18.3492 48.8323 18.8159 48.8323 19.3599C48.8323 19.9146 48.7149 20.3892 48.4803 20.7839C48.2456 21.1786 47.9123 21.4799 47.4803 21.6879C47.0536 21.8959 46.5469 21.9999 45.9603 21.9999H43.7283V21.5679L44.3283 21.5039C44.3389 21.1786 44.3443 20.8479 44.3443 20.5119C44.3443 20.1759 44.3443 19.8372 44.3443 19.4959V19.2239C44.3443 18.8932 44.3443 18.5626 44.3443 18.2319C44.3443 17.8959 44.3389 17.5652 44.3283 17.2399L43.7283 17.1759Z" fill="#242424"/>
</svg>
