<svg width="775" height="42" viewBox="0 0 775 42" fill="none" xmlns="http://www.w3.org/2000/svg">
<path d="M762.281 36.26C762.281 34.37 762.836 32.87 763.946 31.76C765.056 30.65 766.511 30.095 768.311 30.095C770.141 30.095 771.581 30.65 772.631 31.76C773.711 32.87 774.251 34.37 774.251 36.26C774.251 37.04 774.101 37.745 773.801 38.375C773.501 39.035 773.081 39.605 772.541 40.085C772.031 40.565 771.401 40.94 770.651 41.21C769.931 41.48 769.151 41.615 768.311 41.615C767.411 41.615 766.586 41.48 765.836 41.21C765.116 40.94 764.486 40.565 763.946 40.085C763.436 39.605 763.031 39.035 762.731 38.375C762.431 37.745 762.281 37.04 762.281 36.26Z" fill="#252525"/>
<path d="M733.662 38.96C732.822 38.87 731.982 38.63 731.142 38.24C730.332 37.85 729.597 37.325 728.937 36.665C728.277 36.005 727.722 35.21 727.272 34.28C726.852 33.35 726.598 32.3 726.508 31.13C726.268 27.23 726.162 23.45 726.192 19.79C726.252 16.13 726.372 12.32 726.552 8.35999C726.612 7.15998 726.852 6.09498 727.272 5.16498C727.722 4.23498 728.277 3.43998 728.937 2.77998C729.597 2.11998 730.332 1.60998 731.142 1.24998C731.982 0.859983 732.822 0.619984 733.662 0.529984C734.802 0.409983 736.017 0.319983 737.307 0.259984C738.627 0.169983 739.962 0.124983 741.312 0.124983C743.862 0.0949832 746.202 0.424984 748.332 1.11498C750.492 1.80498 752.352 2.91498 753.912 4.44498C755.472 5.94498 756.687 7.89498 757.557 10.295C758.427 12.695 758.862 15.59 758.862 18.98C758.862 22.37 758.427 25.34 757.557 27.89C756.687 30.41 755.472 32.525 753.912 34.235C752.382 35.915 750.537 37.19 748.377 38.06C746.247 38.93 743.922 39.365 741.402 39.365C740.052 39.365 738.717 39.32 737.397 39.23C736.077 39.17 734.832 39.08 733.662 38.96ZM741.087 21.68C740.997 21.86 740.997 22.025 741.087 22.175C741.207 22.325 741.357 22.445 741.537 22.535C741.717 22.595 741.912 22.61 742.122 22.58C742.332 22.52 742.512 22.385 742.662 22.175C743.262 21.305 743.667 20.3 743.877 19.16C744.117 18.02 744.252 16.895 744.282 15.785C744.282 15.515 744.193 15.32 744.013 15.2C743.863 15.05 743.682 14.975 743.472 14.975C743.292 14.945 743.112 14.975 742.932 15.065C742.782 15.155 742.707 15.29 742.707 15.47C742.647 16.58 742.498 17.63 742.258 18.62C742.018 19.58 741.627 20.6 741.087 21.68Z" fill="#252525"/>
<path d="M703.609 19.97C703.609 20.96 703.579 22.025 703.519 23.165C703.489 24.275 703.444 25.4 703.384 26.54C703.324 27.68 703.249 28.805 703.159 29.915C703.069 31.025 702.979 32.06 702.889 33.02C702.799 33.86 702.619 34.64 702.349 35.36C702.079 36.11 701.689 36.755 701.179 37.295C700.699 37.835 700.099 38.255 699.379 38.555C698.689 38.885 697.879 39.05 696.949 39.05C695.989 39.05 695.149 38.885 694.429 38.555C693.739 38.255 693.139 37.835 692.629 37.295C692.149 36.755 691.774 36.11 691.504 35.36C691.234 34.64 691.054 33.86 690.964 33.02C690.514 28.73 690.289 24.32 690.289 19.79C690.289 15.26 690.514 10.85 690.964 6.56001C691.054 5.72001 691.234 4.94001 691.504 4.22001C691.774 3.50001 692.149 2.87001 692.629 2.33001C693.139 1.79001 693.739 1.37001 694.429 1.07001C695.149 0.740013 695.989 0.575012 696.949 0.575012C698.029 0.575012 698.944 0.770013 699.694 1.16001C700.474 1.55001 701.119 2.09001 701.629 2.78001C702.649 4.10001 703.549 5.51001 704.329 7.01001C705.139 8.48001 705.919 9.99501 706.669 11.555C707.419 13.085 708.154 14.63 708.874 16.19C709.624 17.75 710.434 19.25 711.304 20.69C711.394 20.87 711.499 20.99 711.619 21.05C711.769 21.11 711.889 21.11 711.979 21.05C712.099 20.96 712.174 20.84 712.204 20.69C712.264 20.54 712.234 20.36 712.114 20.15C711.634 19.19 711.199 18.35 710.809 17.63C710.419 16.88 709.984 16.07 709.504 15.2C709.564 13.7 709.639 12.2 709.729 10.7C709.819 9.17001 709.924 7.79001 710.044 6.56001C710.164 5.72001 710.359 4.94001 710.629 4.22001C710.929 3.50001 711.319 2.87001 711.799 2.33001C712.309 1.79001 712.909 1.37001 713.599 1.07001C714.289 0.740013 715.114 0.575012 716.074 0.575012C717.004 0.575012 717.814 0.740013 718.504 1.07001C719.224 1.37001 719.824 1.79001 720.304 2.33001C720.814 2.87001 721.204 3.50001 721.474 4.22001C721.774 4.94001 721.984 5.72001 722.104 6.56001C722.524 10.85 722.734 15.26 722.734 19.79C722.734 24.32 722.524 28.73 722.104 33.02C721.984 33.86 721.774 34.64 721.474 35.36C721.204 36.11 720.814 36.755 720.304 37.295C719.824 37.835 719.224 38.255 718.504 38.555C717.814 38.885 717.004 39.05 716.074 39.05C714.754 39.05 713.674 38.75 712.834 38.15C712.024 37.55 711.364 36.785 710.854 35.855C710.254 34.835 709.669 33.65 709.099 32.3C708.529 30.95 707.944 29.555 707.344 28.115C706.774 26.675 706.174 25.25 705.544 23.84C704.914 22.43 704.269 21.14 703.609 19.97Z" fill="#252525"/>
<path d="M670.715 39.41C667.535 39.41 664.895 38.915 662.795 37.925C660.725 36.935 659.075 35.57 657.845 33.83C656.645 32.09 655.805 30.065 655.325 27.755C654.845 25.415 654.605 22.895 654.605 20.195C654.605 17.855 654.62 15.5 654.65 13.13C654.71 10.73 654.785 8.40501 654.875 6.15501C654.995 4.44501 655.625 3.09501 656.765 2.10501C657.905 1.08501 659.345 0.575012 661.085 0.575012C662.825 0.575012 664.265 1.08501 665.405 2.10501C666.575 3.09501 667.205 4.44501 667.295 6.15501C667.415 8.40501 667.49 10.73 667.52 13.13C667.58 15.5 667.61 17.855 667.61 20.195C667.61 20.855 667.64 21.47 667.7 22.04C667.79 22.61 667.94 23.12 668.15 23.57C668.36 23.99 668.66 24.32 669.05 24.56C669.47 24.8 670.025 24.92 670.715 24.92C671.375 24.92 671.915 24.8 672.335 24.56C672.755 24.32 673.07 23.99 673.28 23.57C673.49 23.12 673.625 22.61 673.685 22.04C673.775 21.47 673.82 20.855 673.82 20.195C673.82 17.855 673.835 15.5 673.865 13.13C673.925 10.73 674.015 8.40501 674.135 6.15501C674.165 5.31501 674.345 4.55001 674.675 3.86001C675.005 3.17001 675.44 2.58501 675.98 2.10501C676.52 1.59501 677.15 1.22001 677.87 0.980012C678.62 0.710012 679.43 0.575012 680.3 0.575012C681.17 0.575012 681.98 0.710012 682.73 0.980012C683.48 1.22001 684.125 1.59501 684.665 2.10501C685.235 2.58501 685.685 3.17001 686.015 3.86001C686.345 4.55001 686.525 5.31501 686.555 6.15501C686.675 8.40501 686.75 10.73 686.78 13.13C686.84 15.5 686.87 17.855 686.87 20.195C686.87 22.895 686.615 25.415 686.105 27.755C685.625 30.065 684.77 32.09 683.54 33.83C682.34 35.57 680.69 36.935 678.59 37.925C676.52 38.915 673.895 39.41 670.715 39.41Z" fill="#252525"/>
<path d="M633.745 39.365C630.625 39.365 627.94 38.9 625.69 37.97C623.44 37.07 621.58 35.78 620.11 34.1C618.67 32.39 617.59 30.335 616.87 27.935C616.18 25.505 615.835 22.775 615.835 19.745C615.835 16.715 616.15 14 616.78 11.6C617.41 9.17 618.43 7.115 619.84 5.435C621.25 3.725 623.095 2.42 625.375 1.52C627.655 0.590001 630.445 0.125 633.745 0.125C637.045 0.125 639.835 0.590001 642.115 1.52C644.395 2.42 646.24 3.725 647.65 5.435C649.06 7.115 650.08 9.17 650.71 11.6C651.34 14 651.655 16.715 651.655 19.745C651.655 22.775 651.295 25.505 650.575 27.935C649.885 30.335 648.805 32.39 647.335 34.1C645.895 35.78 644.035 37.07 641.755 37.97C639.505 38.9 636.835 39.365 633.745 39.365ZM632.125 22.67C632.005 22.82 631.99 22.97 632.08 23.12C632.17 23.27 632.305 23.375 632.485 23.435C632.665 23.495 632.86 23.51 633.07 23.48C633.31 23.45 633.505 23.345 633.655 23.165C634.285 22.265 634.705 21.245 634.915 20.105C635.125 18.965 635.245 17.825 635.275 16.685C635.275 16.415 635.2 16.22 635.05 16.1C634.9 15.98 634.72 15.92 634.51 15.92C634.33 15.89 634.15 15.92 633.97 16.01C633.79 16.1 633.7 16.235 633.7 16.415C633.64 17.525 633.49 18.575 633.25 19.565C633.01 20.555 632.635 21.59 632.125 22.67Z" fill="#252525"/>
<path d="M594.312 26.405C594.252 27.515 594.177 28.625 594.087 29.735C594.027 30.815 593.937 31.895 593.817 32.975C593.727 33.815 593.547 34.595 593.277 35.315C593.007 36.065 592.617 36.71 592.107 37.25C591.627 37.79 591.027 38.21 590.307 38.51C589.617 38.84 588.807 39.005 587.877 39.005C586.917 39.005 586.077 38.84 585.357 38.51C584.667 38.21 584.067 37.79 583.557 37.25C583.077 36.71 582.702 36.065 582.432 35.315C582.162 34.595 581.982 33.815 581.892 32.975C581.592 30.275 581.397 27.53 581.307 24.74C581.247 21.95 581.232 19.145 581.262 16.325C581.292 13.085 581.577 10.43 582.117 8.36003C582.687 6.29003 583.587 4.65503 584.817 3.45502C586.077 2.22502 587.712 1.37003 589.722 0.890026C591.732 0.410025 594.222 0.155025 597.192 0.125025C601.872 0.0650257 605.442 1.22003 607.902 3.59003C610.392 5.93003 611.607 9.44003 611.547 14.12C611.547 17.27 611.007 19.775 609.927 21.635C608.847 23.495 607.047 24.89 604.527 25.82C604.137 25.94 603.987 26.15 604.077 26.45C604.197 26.75 604.437 26.855 604.797 26.765C605.457 26.615 606.117 26.375 606.777 26.045C607.467 25.685 608.112 25.31 608.712 24.92C609.492 25.61 610.257 26.45 611.007 27.44C611.757 28.43 612.387 29.63 612.897 31.04C613.407 32.54 613.407 33.935 612.897 35.225C612.417 36.515 611.322 37.55 609.612 38.33C608.682 38.75 607.722 38.975 606.732 39.005C605.772 39.035 604.827 38.885 603.897 38.555C602.967 38.255 602.112 37.79 601.332 37.16C600.552 36.56 599.907 35.825 599.397 34.955C598.707 33.815 598.152 32.525 597.732 31.085C597.312 29.615 597.027 28.085 596.877 26.495C596.457 26.495 596.022 26.495 595.572 26.495C595.152 26.465 594.732 26.435 594.312 26.405ZM599.847 15.425C598.797 15.035 597.837 14.6 596.967 14.12C596.127 13.61 595.287 12.92 594.447 12.05C594.297 11.93 594.132 11.9 593.952 11.96C593.802 11.99 593.652 12.08 593.502 12.23C593.382 12.35 593.307 12.515 593.277 12.725C593.247 12.935 593.307 13.145 593.457 13.355C594.117 14.225 594.957 14.945 595.977 15.515C597.027 16.055 598.077 16.52 599.127 16.91C599.367 17 599.562 16.985 599.712 16.865C599.892 16.745 600.012 16.595 600.072 16.415C600.132 16.235 600.147 16.055 600.117 15.875C600.087 15.665 599.997 15.515 599.847 15.425Z" fill="#252525"/>
<path d="M561.278 39.365C558.338 39.365 555.758 38.84 553.538 37.79C551.318 36.77 549.458 35.375 547.958 33.605C546.488 31.835 545.363 29.765 544.583 27.395C543.833 24.995 543.458 22.445 543.458 19.745C543.458 17.045 543.758 14.51 544.358 12.14C544.958 9.77 545.963 7.7 547.373 5.93C548.813 4.13 550.718 2.72 553.088 1.7C555.488 0.650001 558.473 0.125 562.043 0.125C564.113 0.125 565.973 0.29 567.623 0.619999C569.303 0.95 570.773 1.46 572.033 2.15C572.963 2.66 573.668 3.29 574.148 4.04C574.628 4.76 574.913 5.54 575.003 6.38C575.093 7.22 575.018 8.09 574.778 8.99C574.538 9.86 574.163 10.685 573.653 11.465C573.203 12.155 572.663 12.77 572.033 13.31C571.433 13.85 570.773 14.27 570.053 14.57C569.333 14.87 568.568 15.02 567.758 15.02C566.948 14.99 566.123 14.765 565.283 14.345C564.893 14.135 564.428 13.97 563.888 13.85C563.348 13.7 562.733 13.625 562.043 13.625C560.963 13.625 560.048 13.79 559.298 14.12C558.548 14.45 557.933 14.9 557.453 15.47C557.003 16.04 556.658 16.7 556.418 17.45C556.208 18.17 556.103 18.935 556.103 19.745C556.103 20.555 556.208 21.335 556.418 22.085C556.628 22.805 556.943 23.45 557.363 24.02C557.813 24.59 558.368 25.04 559.028 25.37C559.718 25.7 560.513 25.865 561.413 25.865C561.803 25.865 562.208 25.835 562.628 25.775C563.078 25.685 563.513 25.58 563.933 25.46C564.353 25.31 564.743 25.16 565.103 25.01C565.493 24.86 565.808 24.695 566.048 24.515C566.588 24.155 567.038 23.81 567.398 23.48C567.788 23.12 568.148 22.715 568.478 22.265C568.598 22.085 568.643 21.935 568.613 21.815C568.583 21.665 568.523 21.56 568.433 21.5C568.343 21.44 568.223 21.425 568.073 21.455C567.953 21.455 567.833 21.53 567.713 21.68C567.473 22.04 567.143 22.43 566.723 22.85C566.333 23.24 565.883 23.525 565.373 23.705C564.563 24.005 563.813 24.14 563.123 24.11C562.433 24.05 561.818 23.87 561.278 23.57C560.768 23.27 560.363 22.865 560.063 22.355C559.793 21.815 559.658 21.215 559.658 20.555C559.658 19.415 559.973 18.56 560.603 17.99C561.233 17.39 562.193 17.015 563.483 16.865C565.103 16.655 566.738 16.55 568.388 16.55C570.068 16.55 571.703 16.73 573.293 17.09C574.013 17.27 574.673 17.57 575.273 17.99C575.903 18.41 576.443 18.92 576.893 19.52C577.343 20.09 577.688 20.75 577.928 21.5C578.168 22.22 578.288 22.985 578.288 23.795C578.288 25.955 577.913 27.98 577.163 29.87C576.443 31.76 575.363 33.41 573.923 34.82C572.513 36.23 570.743 37.34 568.613 38.15C566.513 38.96 564.068 39.365 561.278 39.365Z" fill="#252525"/>
<path d="M518.125 25.73C516.775 24.86 515.515 23.735 514.345 22.355C513.205 20.945 512.185 19.4 511.285 17.72C510.415 16.04 509.68 14.285 509.08 12.455C508.51 10.595 508.09 8.79501 507.82 7.05501C507.64 5.85501 507.715 4.83501 508.045 3.99501C508.375 3.15501 508.87 2.49501 509.53 2.01501C510.19 1.50501 510.955 1.14501 511.825 0.935013C512.695 0.695012 513.61 0.575012 514.57 0.575012C517.03 0.575012 518.86 1.14501 520.06 2.28501C521.29 3.42501 521.995 5.25501 522.175 7.77501C522.205 8.43501 522.265 9.18501 522.355 10.025C522.475 10.835 522.61 11.69 522.76 12.59C522.91 13.49 523.09 14.42 523.3 15.38C523.51 16.31 523.75 17.195 524.02 18.035C524.11 18.305 524.245 18.485 524.425 18.575C524.605 18.665 524.77 18.695 524.92 18.665C525.1 18.605 525.235 18.5 525.325 18.35C525.445 18.2 525.475 18.005 525.415 17.765C525.265 17.105 525.115 16.355 524.965 15.515C524.815 14.675 524.665 13.82 524.515 12.95C524.395 12.05 524.29 11.195 524.2 10.385C524.11 9.57501 524.035 8.87001 523.975 8.27001C523.825 6.74001 523.93 5.48001 524.29 4.49001C524.65 3.47001 525.22 2.67501 526 2.10501C526.78 1.53501 527.74 1.14501 528.88 0.935013C530.02 0.695012 531.265 0.575012 532.615 0.575012C535.825 0.575012 538.105 1.29501 539.455 2.73501C540.805 4.14501 541.195 6.12501 540.625 8.67501C540.205 10.505 539.68 12.305 539.05 14.075C538.42 15.815 537.685 17.45 536.845 18.98C536.035 20.48 535.15 21.815 534.19 22.985C533.23 24.155 532.24 25.07 531.22 25.73C531.19 26.15 531.16 26.69 531.13 27.35C531.1 28.01 531.07 28.7 531.04 29.42C531.01 30.11 530.965 30.785 530.905 31.445C530.875 32.105 530.845 32.63 530.815 33.02C530.725 33.86 530.53 34.64 530.23 35.36C529.93 36.11 529.525 36.755 529.015 37.295C528.505 37.835 527.89 38.255 527.17 38.555C526.45 38.885 525.625 39.05 524.695 39.05C523.735 39.05 522.88 38.885 522.13 38.555C521.41 38.255 520.795 37.835 520.285 37.295C519.775 36.755 519.37 36.11 519.07 35.36C518.77 34.64 518.575 33.86 518.485 33.02C518.365 31.76 518.29 30.545 518.26 29.375C518.23 28.205 518.185 26.99 518.125 25.73Z" fill="#252525"/>
<path d="M487.473 31.355C487.503 32.255 487.443 33.155 487.293 34.055C487.143 34.955 486.828 35.78 486.348 36.53C485.868 37.28 485.208 37.88 484.368 38.33C483.528 38.81 482.463 39.05 481.173 39.05C479.433 39.05 477.993 38.54 476.853 37.52C475.713 36.5 475.083 35.12 474.963 33.38C474.783 28.97 474.693 24.44 474.693 19.79C474.693 17.09 474.918 14.585 475.368 12.275C475.818 9.93501 476.613 7.89501 477.753 6.15501C478.893 4.41501 480.423 3.05001 482.343 2.06001C484.293 1.07001 486.738 0.575012 489.678 0.575012C492.648 0.575012 495.093 1.07001 497.013 2.06001C498.963 3.05001 500.508 4.41501 501.648 6.15501C502.788 7.89501 503.583 9.93501 504.033 12.275C504.513 14.585 504.753 17.09 504.753 19.79C504.753 22.1 504.723 24.395 504.663 26.675C504.633 28.925 504.558 31.16 504.438 33.38C504.348 35.12 503.718 36.5 502.548 37.52C501.408 38.54 499.953 39.05 498.183 39.05C496.893 39.05 495.828 38.81 494.988 38.33C494.178 37.88 493.533 37.28 493.053 36.53C492.573 35.78 492.243 34.955 492.063 34.055C491.883 33.125 491.823 32.225 491.883 31.355C491.403 31.475 490.998 31.565 490.668 31.625C490.338 31.685 490.008 31.715 489.678 31.715C489.378 31.715 489.048 31.685 488.688 31.625C488.358 31.565 487.953 31.475 487.473 31.355ZM493.548 19.07C492.648 18.38 491.628 17.93 490.488 17.72C489.378 17.51 488.253 17.375 487.113 17.315C486.843 17.315 486.648 17.39 486.528 17.54C486.408 17.69 486.333 17.87 486.303 18.08C486.273 18.29 486.303 18.485 486.393 18.665C486.513 18.815 486.663 18.905 486.843 18.935C487.953 18.995 488.988 19.145 489.948 19.385C490.938 19.625 491.958 20.03 493.008 20.6C493.158 20.69 493.308 20.69 493.458 20.6C493.608 20.48 493.728 20.33 493.818 20.15C493.908 19.97 493.938 19.775 493.908 19.565C493.878 19.355 493.758 19.19 493.548 19.07Z" fill="#252525"/>
<path d="M445.398 30.815C445.188 29.225 445.023 27.47 444.903 25.55C444.813 23.63 444.768 21.635 444.768 19.565C444.768 17.465 444.813 15.35 444.903 13.22C445.023 11.09 445.188 9.00501 445.398 6.96501C445.578 5.07501 446.208 3.54501 447.288 2.37501C448.398 1.17501 449.988 0.575012 452.058 0.575012C453.678 0.575012 454.953 0.980012 455.883 1.79001C456.843 2.57001 457.548 3.62001 457.998 4.94001C458.448 6.26001 458.703 7.77501 458.763 9.48501C458.823 11.195 458.778 12.965 458.628 14.795C458.508 16.265 458.313 17.585 458.043 18.755C457.803 19.925 457.503 20.99 457.143 21.95C456.783 22.88 456.363 23.735 455.883 24.515C455.433 25.265 454.938 25.985 454.398 26.675C454.278 26.855 454.233 27.02 454.263 27.17C454.293 27.32 454.353 27.44 454.443 27.53C454.563 27.59 454.698 27.62 454.848 27.62C454.998 27.59 455.148 27.5 455.298 27.35C455.868 26.6 456.483 25.895 457.143 25.235C457.803 24.575 458.508 24.005 459.258 23.525C460.008 23.015 460.803 22.61 461.643 22.31C462.513 22.01 463.443 21.86 464.433 21.86C465.783 21.86 466.938 22.055 467.898 22.445C468.888 22.835 469.698 23.36 470.328 24.02C470.988 24.65 471.483 25.4 471.813 26.27C472.173 27.14 472.398 28.07 472.488 29.06C472.668 31.01 472.398 32.63 471.678 33.92C470.958 35.18 469.938 36.2 468.618 36.98C467.298 37.76 465.738 38.3 463.938 38.6C462.138 38.93 460.248 39.095 458.268 39.095C456.618 39.095 455.058 38.975 453.588 38.735C452.118 38.495 450.813 38.06 449.673 37.43C448.533 36.83 447.588 36.005 446.838 34.955C446.088 33.875 445.608 32.495 445.398 30.815Z" fill="#252525"/>
<path d="M424.156 26.315C424.096 27.425 424.021 28.535 423.931 29.645C423.841 30.755 423.751 31.865 423.661 32.975C423.571 33.815 423.391 34.595 423.121 35.315C422.851 36.065 422.461 36.71 421.951 37.25C421.471 37.79 420.871 38.21 420.151 38.51C419.461 38.84 418.651 39.005 417.721 39.005C416.761 39.005 415.921 38.84 415.201 38.51C414.511 38.21 413.911 37.79 413.401 37.25C412.921 36.71 412.546 36.065 412.276 35.315C412.006 34.595 411.826 33.815 411.736 32.975C411.286 28.685 411.061 24.32 411.061 19.88C411.091 15.44 411.316 11.075 411.736 6.78498C411.856 5.70498 412.111 4.78998 412.501 4.03998C412.891 3.28998 413.386 2.67498 413.986 2.19498C414.586 1.71498 415.261 1.35498 416.011 1.11498C416.791 0.844984 417.616 0.649984 418.486 0.529984C419.536 0.409984 420.601 0.319984 421.681 0.259984C422.791 0.169984 423.871 0.124983 424.921 0.124983C427.021 0.0949837 429.091 0.214984 431.131 0.484984C433.201 0.754984 435.046 1.33998 436.666 2.23998C438.316 3.13998 439.636 4.45999 440.626 6.19998C441.646 7.93998 442.156 10.265 442.156 13.175C442.156 15.215 441.916 16.955 441.436 18.395C440.986 19.835 440.341 21.05 439.501 22.04C438.691 23 437.716 23.78 436.576 24.38C435.466 24.95 434.236 25.385 432.886 25.685C431.566 25.985 430.156 26.18 428.656 26.27C427.186 26.33 425.686 26.345 424.156 26.315ZM424.156 14.12C426.016 15.08 428.011 15.455 430.141 15.245C430.411 15.215 430.591 15.11 430.681 14.93C430.801 14.75 430.861 14.57 430.861 14.39C430.861 14.18 430.801 14 430.681 13.85C430.591 13.7 430.456 13.625 430.276 13.625C429.166 13.685 428.176 13.625 427.306 13.445C426.436 13.265 425.521 12.965 424.561 12.545C424.381 12.455 424.216 12.47 424.066 12.59C423.916 12.68 423.796 12.815 423.706 12.995C423.646 13.175 423.646 13.385 423.706 13.625C423.766 13.835 423.916 14 424.156 14.12Z" fill="#252525"/>
<path d="M379.983 31.355C380.013 32.255 379.953 33.155 379.803 34.055C379.653 34.955 379.338 35.78 378.858 36.53C378.378 37.28 377.718 37.88 376.878 38.33C376.038 38.81 374.973 39.05 373.683 39.05C371.943 39.05 370.503 38.54 369.363 37.52C368.223 36.5 367.593 35.12 367.473 33.38C367.293 28.97 367.203 24.44 367.203 19.79C367.203 17.09 367.428 14.585 367.878 12.275C368.328 9.93501 369.123 7.89501 370.263 6.15501C371.403 4.41501 372.933 3.05001 374.853 2.06001C376.803 1.07001 379.248 0.575012 382.188 0.575012C385.158 0.575012 387.603 1.07001 389.523 2.06001C391.473 3.05001 393.018 4.41501 394.158 6.15501C395.298 7.89501 396.093 9.93501 396.543 12.275C397.023 14.585 397.263 17.09 397.263 19.79C397.263 22.1 397.233 24.395 397.173 26.675C397.143 28.925 397.068 31.16 396.948 33.38C396.858 35.12 396.228 36.5 395.058 37.52C393.918 38.54 392.463 39.05 390.693 39.05C389.403 39.05 388.338 38.81 387.498 38.33C386.688 37.88 386.043 37.28 385.563 36.53C385.083 35.78 384.753 34.955 384.573 34.055C384.393 33.125 384.333 32.225 384.393 31.355C383.913 31.475 383.508 31.565 383.178 31.625C382.848 31.685 382.518 31.715 382.188 31.715C381.888 31.715 381.558 31.685 381.198 31.625C380.868 31.565 380.463 31.475 379.983 31.355ZM386.058 19.07C385.158 18.38 384.138 17.93 382.998 17.72C381.888 17.51 380.763 17.375 379.623 17.315C379.353 17.315 379.158 17.39 379.038 17.54C378.918 17.69 378.843 17.87 378.813 18.08C378.783 18.29 378.813 18.485 378.903 18.665C379.023 18.815 379.173 18.905 379.353 18.935C380.463 18.995 381.498 19.145 382.458 19.385C383.448 19.625 384.468 20.03 385.518 20.6C385.668 20.69 385.818 20.69 385.968 20.6C386.118 20.48 386.238 20.33 386.328 20.15C386.418 19.97 386.448 19.775 386.418 19.565C386.388 19.355 386.268 19.19 386.058 19.07Z" fill="#252525"/>
<path d="M340.988 27.98C341.138 28.13 341.348 28.145 341.618 28.025C341.888 27.905 341.963 27.695 341.843 27.395C341.423 26.465 340.883 25.505 340.223 24.515C339.563 23.525 338.798 22.61 337.928 21.77C337.058 20.9 336.083 20.165 335.003 19.565C333.953 18.965 332.813 18.575 331.583 18.395C329.003 17.975 326.963 17.075 325.463 15.695C323.963 14.285 323.213 12.26 323.213 9.62C323.213 8.18 323.573 6.875 324.293 5.705C325.043 4.535 326.063 3.545 327.353 2.735C328.643 1.895 330.173 1.25 331.943 0.799999C333.713 0.35 335.633 0.125 337.703 0.125C339.263 0.125 340.943 0.29 342.743 0.619999C344.543 0.92 346.193 1.43 347.693 2.15C349.193 2.87 350.423 3.815 351.383 4.985C352.343 6.155 352.763 7.595 352.643 9.305C352.583 10.415 352.343 11.36 351.923 12.14C351.533 12.89 351.023 13.505 350.393 13.985C349.763 14.435 349.058 14.765 348.278 14.975C347.498 15.185 346.703 15.29 345.893 15.29C344.663 15.29 343.553 15.005 342.563 14.435C341.603 13.865 340.673 13.19 339.773 12.41C339.293 11.99 338.843 11.6 338.423 11.24C338.003 10.88 337.583 10.52 337.163 10.16C336.773 9.8 336.353 9.425 335.903 9.035C335.483 8.645 335.033 8.21 334.553 7.73C334.373 7.55 334.208 7.46 334.058 7.46C333.908 7.46 333.773 7.52 333.653 7.64C333.563 7.73 333.518 7.85 333.518 8C333.518 8.15 333.593 8.3 333.743 8.45C334.313 9.08 334.973 9.785 335.723 10.565C336.473 11.315 337.358 12.095 338.378 12.905C339.398 13.715 340.568 14.525 341.888 15.335C343.208 16.145 344.723 16.895 346.433 17.585C347.423 18.005 348.383 18.545 349.313 19.205C350.273 19.835 351.098 20.615 351.788 21.545C352.478 22.475 353.003 23.555 353.363 24.785C353.753 26.015 353.888 27.41 353.768 28.97C353.648 30.62 353.153 32.09 352.283 33.38C351.443 34.67 350.333 35.75 348.953 36.62C347.573 37.52 345.983 38.195 344.183 38.645C342.413 39.125 340.538 39.365 338.558 39.365C336.518 39.365 334.598 39.125 332.798 38.645C331.028 38.195 329.453 37.52 328.073 36.62C326.723 35.72 325.598 34.61 324.698 33.29C323.828 31.97 323.258 30.455 322.988 28.745C322.808 27.545 322.778 26.375 322.898 25.235C323.048 24.095 323.378 23.075 323.888 22.175C324.428 21.275 325.178 20.555 326.138 20.015C327.098 19.475 328.328 19.205 329.828 19.205C331.238 19.205 332.498 19.475 333.608 20.015C334.748 20.525 335.768 21.2 336.668 22.04C337.568 22.85 338.363 23.78 339.053 24.83C339.743 25.88 340.388 26.93 340.988 27.98Z" fill="#252525"/>
<path d="M307.234 33.02C306.784 28.73 306.559 24.32 306.559 19.79C306.559 15.26 306.784 10.85 307.234 6.56001C307.324 5.72001 307.504 4.94001 307.774 4.22001C308.044 3.50001 308.419 2.87001 308.899 2.33001C309.409 1.79001 310.009 1.37001 310.699 1.07001C311.419 0.740013 312.259 0.575012 313.219 0.575012C314.149 0.575012 314.959 0.740013 315.649 1.07001C316.369 1.37001 316.969 1.79001 317.449 2.33001C317.959 2.87001 318.349 3.50001 318.619 4.22001C318.889 4.94001 319.069 5.72001 319.159 6.56001C319.609 10.85 319.834 15.26 319.834 19.79C319.834 24.32 319.609 28.73 319.159 33.02C319.069 33.86 318.889 34.64 318.619 35.36C318.349 36.11 317.959 36.755 317.449 37.295C316.969 37.835 316.369 38.255 315.649 38.555C314.959 38.885 314.149 39.05 313.219 39.05C312.259 39.05 311.419 38.885 310.699 38.555C310.009 38.255 309.409 37.835 308.899 37.295C308.419 36.755 308.044 36.11 307.774 35.36C307.504 34.64 307.324 33.86 307.234 33.02Z" fill="#252525"/>
<path d="M267.974 38.96C267.134 38.87 266.294 38.63 265.454 38.24C264.644 37.85 263.909 37.325 263.249 36.665C262.589 36.005 262.034 35.21 261.584 34.28C261.164 33.35 260.909 32.3 260.819 31.13C260.579 27.23 260.474 23.45 260.504 19.79C260.564 16.13 260.684 12.32 260.864 8.35999C260.924 7.15998 261.164 6.09498 261.584 5.16498C262.034 4.23498 262.589 3.43998 263.249 2.77998C263.909 2.11998 264.644 1.60998 265.454 1.24998C266.294 0.859983 267.134 0.619984 267.974 0.529984C269.114 0.409983 270.329 0.319983 271.619 0.259984C272.939 0.169983 274.274 0.124983 275.624 0.124983C278.174 0.0949832 280.514 0.424984 282.644 1.11498C284.804 1.80498 286.664 2.91498 288.224 4.44498C289.784 5.94498 290.999 7.89498 291.869 10.295C292.739 12.695 293.174 15.59 293.174 18.98C293.174 22.37 292.739 25.34 291.869 27.89C290.999 30.41 289.784 32.525 288.224 34.235C286.694 35.915 284.849 37.19 282.689 38.06C280.559 38.93 278.234 39.365 275.714 39.365C274.364 39.365 273.029 39.32 271.709 39.23C270.389 39.17 269.144 39.08 267.974 38.96ZM275.399 21.68C275.309 21.86 275.309 22.025 275.399 22.175C275.519 22.325 275.669 22.445 275.849 22.535C276.029 22.595 276.224 22.61 276.434 22.58C276.644 22.52 276.824 22.385 276.974 22.175C277.574 21.305 277.979 20.3 278.189 19.16C278.429 18.02 278.564 16.895 278.594 15.785C278.594 15.515 278.504 15.32 278.324 15.2C278.174 15.05 277.994 14.975 277.784 14.975C277.604 14.945 277.424 14.975 277.244 15.065C277.094 15.155 277.019 15.29 277.019 15.47C276.959 16.58 276.809 17.63 276.569 18.62C276.329 19.58 275.939 20.6 275.399 21.68Z" fill="#252525"/>
<path d="M231.208 30.815C230.998 29.225 230.833 27.47 230.713 25.55C230.623 23.63 230.578 21.635 230.578 19.565C230.578 17.465 230.623 15.35 230.713 13.22C230.833 11.09 230.998 9.00501 231.208 6.96501C231.388 5.07501 232.018 3.54501 233.098 2.37501C234.208 1.17501 235.798 0.575012 237.868 0.575012C239.488 0.575012 240.763 0.980012 241.693 1.79001C242.653 2.57001 243.358 3.62001 243.808 4.94001C244.258 6.26001 244.513 7.77501 244.573 9.48501C244.633 11.195 244.588 12.965 244.438 14.795C244.318 16.265 244.123 17.585 243.853 18.755C243.613 19.925 243.313 20.99 242.953 21.95C242.593 22.88 242.173 23.735 241.693 24.515C241.243 25.265 240.748 25.985 240.208 26.675C240.088 26.855 240.043 27.02 240.073 27.17C240.103 27.32 240.163 27.44 240.253 27.53C240.373 27.59 240.508 27.62 240.658 27.62C240.808 27.59 240.958 27.5 241.108 27.35C241.678 26.6 242.293 25.895 242.953 25.235C243.613 24.575 244.318 24.005 245.068 23.525C245.818 23.015 246.613 22.61 247.453 22.31C248.323 22.01 249.253 21.86 250.243 21.86C251.593 21.86 252.748 22.055 253.708 22.445C254.698 22.835 255.508 23.36 256.138 24.02C256.798 24.65 257.293 25.4 257.623 26.27C257.983 27.14 258.208 28.07 258.298 29.06C258.478 31.01 258.208 32.63 257.488 33.92C256.768 35.18 255.748 36.2 254.428 36.98C253.108 37.76 251.548 38.3 249.748 38.6C247.948 38.93 246.058 39.095 244.078 39.095C242.428 39.095 240.868 38.975 239.398 38.735C237.928 38.495 236.623 38.06 235.483 37.43C234.343 36.83 233.398 36.005 232.648 34.955C231.898 33.875 231.418 32.495 231.208 30.815Z" fill="#252525"/>
<path d="M208.56 26.405C208.5 27.515 208.425 28.625 208.335 29.735C208.275 30.815 208.185 31.895 208.065 32.975C207.975 33.815 207.795 34.595 207.525 35.315C207.255 36.065 206.865 36.71 206.355 37.25C205.875 37.79 205.275 38.21 204.555 38.51C203.865 38.84 203.055 39.005 202.125 39.005C201.165 39.005 200.325 38.84 199.605 38.51C198.915 38.21 198.315 37.79 197.805 37.25C197.325 36.71 196.95 36.065 196.68 35.315C196.41 34.595 196.23 33.815 196.14 32.975C195.84 30.275 195.645 27.53 195.555 24.74C195.495 21.95 195.48 19.145 195.51 16.325C195.54 13.085 195.825 10.43 196.365 8.36003C196.935 6.29003 197.835 4.65503 199.065 3.45502C200.325 2.22502 201.96 1.37003 203.97 0.890026C205.98 0.410025 208.47 0.155025 211.44 0.125025C216.12 0.0650257 219.69 1.22003 222.15 3.59003C224.64 5.93003 225.855 9.44003 225.795 14.12C225.795 17.27 225.255 19.775 224.175 21.635C223.095 23.495 221.295 24.89 218.775 25.82C218.385 25.94 218.235 26.15 218.325 26.45C218.445 26.75 218.685 26.855 219.045 26.765C219.705 26.615 220.365 26.375 221.025 26.045C221.715 25.685 222.36 25.31 222.96 24.92C223.74 25.61 224.505 26.45 225.255 27.44C226.005 28.43 226.635 29.63 227.145 31.04C227.655 32.54 227.655 33.935 227.145 35.225C226.665 36.515 225.57 37.55 223.86 38.33C222.93 38.75 221.97 38.975 220.98 39.005C220.02 39.035 219.075 38.885 218.145 38.555C217.215 38.255 216.36 37.79 215.58 37.16C214.8 36.56 214.155 35.825 213.645 34.955C212.955 33.815 212.4 32.525 211.98 31.085C211.56 29.615 211.275 28.085 211.125 26.495C210.705 26.495 210.27 26.495 209.82 26.495C209.4 26.465 208.98 26.435 208.56 26.405ZM214.095 15.425C213.045 15.035 212.085 14.6 211.215 14.12C210.375 13.61 209.535 12.92 208.695 12.05C208.545 11.93 208.38 11.9 208.2 11.96C208.05 11.99 207.9 12.08 207.75 12.23C207.63 12.35 207.555 12.515 207.525 12.725C207.495 12.935 207.555 13.145 207.705 13.355C208.365 14.225 209.205 14.945 210.225 15.515C211.275 16.055 212.325 16.52 213.375 16.91C213.615 17 213.81 16.985 213.96 16.865C214.14 16.745 214.26 16.595 214.32 16.415C214.38 16.235 214.395 16.055 214.365 15.875C214.335 15.665 214.245 15.515 214.095 15.425Z" fill="#252525"/>
<path d="M174.605 39.365C171.485 39.365 168.8 38.9 166.55 37.97C164.3 37.07 162.44 35.78 160.97 34.1C159.53 32.39 158.45 30.335 157.73 27.935C157.04 25.505 156.695 22.775 156.695 19.745C156.695 16.715 157.01 14 157.64 11.6C158.27 9.17 159.29 7.115 160.7 5.435C162.11 3.725 163.955 2.42 166.235 1.52C168.515 0.590001 171.305 0.125 174.605 0.125C177.905 0.125 180.695 0.590001 182.975 1.52C185.255 2.42 187.1 3.725 188.51 5.435C189.92 7.115 190.94 9.17 191.57 11.6C192.2 14 192.515 16.715 192.515 19.745C192.515 22.775 192.155 25.505 191.435 27.935C190.745 30.335 189.665 32.39 188.195 34.1C186.755 35.78 184.895 37.07 182.615 37.97C180.365 38.9 177.695 39.365 174.605 39.365ZM172.985 22.67C172.865 22.82 172.85 22.97 172.94 23.12C173.03 23.27 173.165 23.375 173.345 23.435C173.525 23.495 173.72 23.51 173.93 23.48C174.17 23.45 174.365 23.345 174.515 23.165C175.145 22.265 175.565 21.245 175.775 20.105C175.985 18.965 176.105 17.825 176.135 16.685C176.135 16.415 176.06 16.22 175.91 16.1C175.76 15.98 175.58 15.92 175.37 15.92C175.19 15.89 175.01 15.92 174.83 16.01C174.65 16.1 174.56 16.235 174.56 16.415C174.5 17.525 174.35 18.575 174.11 19.565C173.87 20.555 173.495 21.59 172.985 22.67Z" fill="#252525"/>
<path d="M126.579 21.86C126.429 22.22 126.474 22.475 126.714 22.625C126.984 22.745 127.194 22.64 127.344 22.31C128.004 20.66 128.619 19.04 129.189 17.45C129.789 15.83 130.509 14.255 131.349 12.725C131.649 12.155 132.039 11.72 132.519 11.42C133.029 11.12 133.539 10.97 134.049 10.97C134.589 10.97 135.099 11.12 135.579 11.42C136.059 11.72 136.464 12.155 136.794 12.725C137.154 13.415 137.544 14.15 137.964 14.93C138.384 15.71 138.804 16.58 139.224 17.54C139.134 18.05 139.044 18.59 138.954 19.16C138.894 19.73 138.819 20.3 138.729 20.87C138.669 21.08 138.684 21.245 138.774 21.365C138.864 21.485 138.969 21.56 139.089 21.59C139.209 21.62 139.329 21.605 139.449 21.545C139.569 21.455 139.644 21.29 139.674 21.05C140.004 18.62 140.304 16.205 140.574 13.805C140.844 11.375 141.234 8.96001 141.744 6.56001C141.924 5.72001 142.149 4.94001 142.419 4.22001C142.719 3.50001 143.094 2.87001 143.544 2.33001C144.024 1.79001 144.594 1.37001 145.254 1.07001C145.944 0.740013 146.754 0.575012 147.684 0.575012C148.644 0.575012 149.484 0.740013 150.204 1.07001C150.954 1.37001 151.584 1.79001 152.094 2.33001C152.604 2.87001 152.994 3.50001 153.264 4.22001C153.534 4.94001 153.669 5.72001 153.669 6.56001C153.729 8.69001 153.699 10.895 153.579 13.175C153.459 15.425 153.264 17.69 152.994 19.97C152.754 22.22 152.439 24.455 152.049 26.675C151.689 28.895 151.299 31.01 150.879 33.02C150.459 34.82 149.754 36.275 148.764 37.385C147.804 38.495 146.469 39.05 144.759 39.05C143.619 39.05 142.674 38.84 141.924 38.42C141.204 38.03 140.619 37.49 140.169 36.8C139.029 35.12 138.009 33.245 137.109 31.175C136.239 29.105 135.399 27.02 134.589 24.92C134.439 24.62 134.259 24.47 134.049 24.47C133.869 24.47 133.719 24.62 133.599 24.92C132.789 27.05 131.934 29.15 131.034 31.22C130.164 33.26 129.159 35.12 128.019 36.8C127.539 37.49 126.939 38.03 126.219 38.42C125.499 38.84 124.569 39.05 123.429 39.05C121.719 39.05 120.369 38.495 119.379 37.385C118.389 36.275 117.699 34.82 117.309 33.02C116.859 31.01 116.454 28.895 116.094 26.675C115.734 24.455 115.419 22.22 115.149 19.97C114.909 17.69 114.729 15.425 114.609 13.175C114.489 10.895 114.459 8.69001 114.519 6.56001C114.549 5.72001 114.699 4.94001 114.969 4.22001C115.239 3.50001 115.614 2.87001 116.094 2.33001C116.604 1.79001 117.219 1.37001 117.939 1.07001C118.689 0.740013 119.529 0.575012 120.459 0.575012C121.389 0.575012 122.184 0.740013 122.844 1.07001C123.534 1.37001 124.119 1.79001 124.599 2.33001C125.079 2.87001 125.454 3.50001 125.724 4.22001C126.024 4.94001 126.264 5.72001 126.444 6.56001C126.624 7.37001 126.789 8.24001 126.939 9.17001C127.089 10.1 127.224 11.06 127.344 12.05C127.494 13.01 127.629 13.985 127.749 14.975C127.869 15.935 127.989 16.865 128.109 17.765C127.749 18.485 127.464 19.13 127.254 19.7C127.044 20.24 126.819 20.96 126.579 21.86Z" fill="#252525"/>
<path d="M72.5625 32.12C72.3225 30.2 72.1725 28.22 72.1125 26.18C72.0525 24.14 72.0225 21.995 72.0225 19.745C72.0225 17.495 72.0525 15.35 72.1125 13.31C72.1725 11.27 72.3225 9.305 72.5625 7.415C72.7125 5.975 73.2225 4.79 74.0925 3.86C74.9925 2.93 76.1025 2.195 77.4225 1.655C78.7425 1.085 80.2125 0.695 81.8325 0.485001C83.4525 0.245 85.0725 0.125 86.6925 0.125C88.4025 0.125 90.0825 0.230001 91.7325 0.440001C93.4125 0.620001 94.9125 1.01 96.2325 1.61C97.5825 2.21 98.6625 3.065 99.4725 4.175C100.282 5.285 100.687 6.74 100.687 8.54C100.687 10.01 100.357 10.94 99.6975 11.33C99.0375 11.72 97.8225 11.675 96.0525 11.195C95.4525 11.045 94.8225 10.925 94.1625 10.835C93.5325 10.715 92.9325 10.655 92.3625 10.655C90.7425 10.655 89.3475 10.775 88.1775 11.015C87.0075 11.225 85.9425 11.525 84.9825 11.915C84.7425 12.005 84.5775 12.14 84.4875 12.32C84.3975 12.5 84.3675 12.68 84.3975 12.86C84.4575 13.01 84.5625 13.13 84.7125 13.22C84.8925 13.28 85.1175 13.265 85.3875 13.175C86.3775 12.815 87.4575 12.545 88.6275 12.365C89.7975 12.185 90.9375 12.095 92.0475 12.095C93.1875 12.065 94.2525 12.14 95.2425 12.32C96.2325 12.5 97.0275 12.77 97.6275 13.13C98.6775 13.79 99.4425 14.63 99.9225 15.65C100.432 16.67 100.687 18.035 100.687 19.745C100.687 21.455 100.432 22.835 99.9225 23.885C99.4425 24.905 98.6775 25.73 97.6275 26.36C97.0275 26.75 96.2325 27.035 95.2425 27.215C94.2525 27.395 93.1875 27.485 92.0475 27.485C90.9375 27.455 89.7975 27.35 88.6275 27.17C87.4575 26.96 86.3775 26.675 85.3875 26.315C85.1175 26.225 84.8925 26.225 84.7125 26.315C84.5625 26.405 84.4575 26.525 84.3975 26.675C84.3675 26.825 84.3975 26.99 84.4875 27.17C84.5775 27.35 84.7425 27.485 84.9825 27.575C85.9425 27.965 87.0075 28.265 88.1775 28.475C89.3475 28.685 90.7425 28.79 92.3625 28.79C92.9325 28.79 93.5325 28.745 94.1625 28.655C94.8225 28.565 95.4525 28.445 96.0525 28.295C97.8225 27.845 99.0375 27.815 99.6975 28.205C100.357 28.565 100.687 29.465 100.687 30.905C100.687 32.705 100.282 34.16 99.4725 35.27C98.6625 36.38 97.5825 37.235 96.2325 37.835C94.9125 38.465 93.4125 38.87 91.7325 39.05C90.0825 39.26 88.4025 39.365 86.6925 39.365C85.0725 39.365 83.4525 39.245 81.8325 39.005C80.2125 38.795 78.7425 38.405 77.4225 37.835C76.1025 37.295 74.9925 36.56 74.0925 35.63C73.2225 34.7 72.7125 33.53 72.5625 32.12Z" fill="#252525"/>
<path d="M48.3352 26.855C48.2752 27.905 48.2002 28.94 48.1102 29.96C48.0502 30.98 47.9602 32 47.8402 33.02C47.7502 33.86 47.5702 34.64 47.3002 35.36C47.0302 36.11 46.6402 36.755 46.1302 37.295C45.6502 37.835 45.0502 38.255 44.3302 38.555C43.6402 38.885 42.8302 39.05 41.9002 39.05C40.9402 39.05 40.1002 38.885 39.3802 38.555C38.6902 38.255 38.0902 37.835 37.5802 37.295C37.1002 36.755 36.7252 36.11 36.4552 35.36C36.1852 34.64 36.0052 33.86 35.9152 33.02C35.4652 28.73 35.2402 24.32 35.2402 19.79C35.2402 15.26 35.4652 10.85 35.9152 6.56001C36.0052 5.72001 36.1852 4.94001 36.4552 4.22001C36.7252 3.50001 37.1002 2.87001 37.5802 2.33001C38.0902 1.79001 38.6902 1.37001 39.3802 1.07001C40.1002 0.740013 40.9402 0.575012 41.9002 0.575012C42.8302 0.575012 43.6402 0.740013 44.3302 1.07001C45.0502 1.37001 45.6502 1.79001 46.1302 2.33001C46.6402 2.87001 47.0302 3.50001 47.3002 4.22001C47.5702 4.94001 47.7502 5.72001 47.8402 6.56001C47.9602 7.58001 48.0502 8.60001 48.1102 9.62001C48.2002 10.64 48.2752 11.675 48.3352 12.725C49.4752 12.455 50.6602 12.32 51.8902 12.32C53.1202 12.29 54.3052 12.41 55.4452 12.68C55.5052 11.63 55.5652 10.61 55.6252 9.62001C55.7152 8.60001 55.8202 7.58001 55.9402 6.56001C56.0302 5.72001 56.2102 4.94001 56.4802 4.22001C56.7802 3.50001 57.1702 2.87001 57.6502 2.33001C58.1302 1.79001 58.7152 1.37001 59.4052 1.07001C60.1252 0.740013 60.9502 0.575012 61.8802 0.575012C62.8102 0.575012 63.6352 0.740013 64.3552 1.07001C65.0752 1.37001 65.6752 1.79001 66.1552 2.33001C66.6652 2.87001 67.0552 3.50001 67.3252 4.22001C67.6252 4.94001 67.8202 5.72001 67.9102 6.56001C68.3302 10.85 68.5402 15.26 68.5402 19.79C68.5402 24.32 68.3302 28.73 67.9102 33.02C67.8202 33.86 67.6252 34.64 67.3252 35.36C67.0552 36.11 66.6652 36.755 66.1552 37.295C65.6752 37.835 65.0752 38.255 64.3552 38.555C63.6352 38.885 62.8102 39.05 61.8802 39.05C60.9502 39.05 60.1252 38.885 59.4052 38.555C58.7152 38.255 58.1302 37.835 57.6502 37.295C57.1702 36.755 56.7802 36.11 56.4802 35.36C56.2102 34.64 56.0302 33.86 55.9402 33.02C55.8202 32 55.7152 30.995 55.6252 30.005C55.5652 28.985 55.5052 27.95 55.4452 26.9C54.3052 27.17 53.1202 27.305 51.8902 27.305C50.6602 27.275 49.4752 27.125 48.3352 26.855Z" fill="#252525"/>
<path d="M7.51511 15.785C6.43511 15.785 5.44511 15.605 4.54511 15.245C3.67511 14.885 2.92511 14.39 2.29511 13.76C1.69511 13.1 1.21511 12.32 0.855107 11.42C0.525107 10.52 0.360107 9.53001 0.360107 8.45001C0.360107 6.17001 1.00511 4.38501 2.29511 3.09501C3.61511 1.80501 5.35511 1.08501 7.51511 0.935013C9.25511 0.785013 10.8751 0.695013 12.3751 0.665013C13.9051 0.605012 15.4051 0.575012 16.8751 0.575012C18.3151 0.575012 19.7701 0.605012 21.2401 0.665013C22.7401 0.725013 24.3301 0.815013 26.0101 0.935013C28.1701 1.08501 29.8951 1.82001 31.1851 3.14001C32.5051 4.43001 33.1651 6.17001 33.1651 8.36001C33.1651 9.44001 32.9851 10.445 32.6251 11.375C32.2951 12.275 31.8151 13.055 31.1851 13.715C30.5551 14.375 29.8051 14.885 28.9351 15.245C28.0651 15.605 27.0901 15.785 26.0101 15.785H24.5251C24.3751 15.185 24.1951 14.555 23.9851 13.895C23.8051 13.235 23.6251 12.635 23.4451 12.095C23.3551 11.885 23.2201 11.75 23.0401 11.69C22.8901 11.63 22.7401 11.615 22.5901 11.645C22.4401 11.645 22.3051 11.705 22.1851 11.825C22.0951 11.915 22.0801 12.035 22.1401 12.185C22.6201 13.685 23.0251 15.305 23.3551 17.045C23.6851 18.785 23.9251 20.525 24.0751 22.265C24.2551 24.005 24.3601 25.7 24.3901 27.35C24.4501 28.97 24.4351 30.41 24.3451 31.67C24.2551 32.6 24.0451 33.515 23.7151 34.415C23.3851 35.285 22.9051 36.065 22.2751 36.755C21.6751 37.445 20.9251 38 20.0251 38.42C19.1251 38.84 18.0451 39.05 16.7851 39.05C15.5551 39.05 14.4751 38.84 13.5451 38.42C12.6451 38 11.8801 37.445 11.2501 36.755C10.6501 36.065 10.1701 35.285 9.81011 34.415C9.48011 33.515 9.28511 32.6 9.22511 31.67C9.04511 29.12 9.04511 26.525 9.22511 23.885C9.40511 21.245 9.82511 18.545 10.4851 15.785H7.51511Z" fill="#252525"/>
</svg>
