<svg width="213" height="51" viewBox="0 0 213 51" fill="none" xmlns="http://www.w3.org/2000/svg">
<path d="M166.323 49.9414H147.447L171.333 23.7959L159.665 0.521606H178.602L183.794 13.4111L194.485 0.521606H212.322L190.942 23.857L203.648 49.9414H184.283L178.235 35.7691L166.323 49.9414Z" fill="white"/>
<path d="M149.98 0.521606L143.565 30.5767C140.633 44.3214 131.104 50.7966 113.816 50.7966C96.5281 50.7966 89.5641 44.3214 92.4963 30.5767L98.9105 0.521606H116.198L110.517 27.2168C109.479 32.1649 108.074 38.518 116.565 38.518C124.689 38.518 126.033 32.1649 127.072 27.2168L132.753 0.521606H149.98Z" fill="white"/>
<path d="M59.2222 49.9414L69.7292 0.521606H87.3224L76.8154 49.9414H59.2222Z" fill="white"/>
<path d="M58.1503 0.521606L51.7361 30.5767C48.8039 44.3214 39.2743 50.7966 21.9865 50.7966C4.69872 50.7966 -2.26526 44.3214 0.66694 30.5767L7.08113 0.521606H24.3689L18.6878 27.2168C17.6493 32.1649 16.2443 38.518 24.7354 38.518C32.8601 38.518 34.204 32.1649 35.2425 27.2168L40.9236 0.521606H58.1503Z" fill="white"/>
</svg>
