<svg width="766" height="52" viewBox="0 0 766 52" fill="none" xmlns="http://www.w3.org/2000/svg">
<path d="M730.552 34.1423C729.452 39.4569 732.995 40.6787 737.943 40.6787C740.631 40.6787 744.907 40.1289 745.701 36.5247C746.312 33.7758 744.357 33.3482 737.21 31.5156C736.538 31.3323 735.805 31.0879 734.95 30.9047C726.214 28.6444 715.707 26.262 717.723 16.7324C720.35 4.45379 732.445 0.544189 744.357 0.544189C756.819 0.544189 767.448 4.69814 764.883 16.8546H747.778C749 12.945 745.274 11.5399 741.975 11.5399C739.715 11.5399 735.866 12.0286 735.316 14.7776C734.767 17.2822 739.531 18.2596 744.785 19.4813L750.222 20.8252C757.797 22.6579 765.982 26.2009 764.15 34.9365C761.401 47.7038 746.862 51.7966 733.972 51.7966C727.558 51.7966 709.232 49.7807 712.47 34.1423H730.552Z" fill="white"/>
<path d="M673.276 13.9835L668.084 38.4796H674.132C684.761 38.4796 688.121 30.5382 689.098 25.9566C689.77 22.8411 690.625 13.9835 678.102 13.9835H673.276ZM648.23 50.9414L658.737 1.52161H686.349C704.92 1.52161 708.951 13.678 706.264 26.1399C703.026 41.3507 691.908 50.9414 672.482 50.9414H648.23Z" fill="white"/>
<path d="M582.779 50.9414L593.286 1.52161H623.219C640.018 1.52161 643.377 10.3793 641.85 17.5876C640.445 24.1851 636.23 28.7666 630.182 31.4545L640.262 50.9414H620.164L612.467 34.3256H603.915L600.372 50.9414H582.779ZM608.313 13.5558L606.358 22.6579H613.628C618.576 22.6579 623.341 22.9633 624.379 18.1374C625.295 13.8613 621.386 13.5558 616.621 13.5558H608.313Z" fill="white"/>
<path d="M556.846 50.9414L555.685 44.405H536.015L531.922 50.9414H513.901L545.606 1.52161H564.482L574.867 50.9414H556.846ZM551.287 20.2755L543.895 31.9432H553.486L551.47 20.2755H551.287Z" fill="white"/>
<path d="M483.065 13.9835L477.873 38.4796H483.92C494.549 38.4796 497.909 30.5382 498.887 25.9566C499.559 22.8411 500.414 13.9835 487.891 13.9835H483.065ZM458.019 50.9414L468.526 1.52161H496.138C514.708 1.52161 518.74 13.678 516.052 26.1399C512.815 41.3507 501.697 50.9414 482.271 50.9414H458.019Z" fill="white"/>
<path d="M393.701 50.9414L404.208 1.52161H422.595L434.018 27.9114H434.263L439.883 1.52161H456.926L446.419 50.9414H428.826L416.792 23.8796H416.425L410.683 50.9414H393.701Z" fill="white"/>
<path d="M367.768 50.9414L366.607 44.405H346.937L342.844 50.9414H324.824L356.528 1.52161H375.404L385.789 50.9414H367.768ZM362.209 20.2755L354.818 31.9432H364.408L362.392 20.2755H362.209Z" fill="white"/>
<path d="M295.127 50.8803L302.946 14.1667H287.308L289.996 1.52161H338.621L335.933 14.1667H320.234L312.415 50.8803H295.127Z" fill="white"/>
<path d="M242.61 34.1423C241.511 39.4569 245.054 40.6787 250.002 40.6787C252.69 40.6787 256.966 40.1289 257.76 36.5247C258.371 33.7758 256.416 33.3482 249.269 31.5156C248.597 31.3323 247.864 31.0879 247.009 30.9047C238.273 28.6444 227.766 26.262 229.782 16.7324C232.409 4.45379 244.504 0.544189 256.416 0.544189C268.878 0.544189 279.507 4.69814 276.941 16.8546H259.837C261.059 12.945 257.332 11.5399 254.034 11.5399C251.773 11.5399 247.925 12.0286 247.375 14.7776C246.825 17.2822 251.59 18.2596 256.844 19.4813L262.28 20.8252C269.855 22.6579 278.041 26.2009 276.208 34.9365C273.459 47.7038 258.921 51.7966 246.031 51.7966C239.617 51.7966 221.291 49.7807 224.528 34.1423H242.61Z" fill="white"/>
<path d="M159.078 13.8613L157.734 20.1533H167.081C170.99 20.1533 173.251 19.9089 173.923 16.7324C174.472 13.9835 172.151 13.8613 168.425 13.8613H159.078ZM133.971 50.9414L144.478 1.52161H175.633C191.088 1.52161 192.676 7.99688 191.455 13.8613C190.416 18.8094 186.873 21.9248 182.169 23.5131C187.117 24.6738 191.149 28.6445 189.622 35.975C187.545 45.8101 179.298 50.9414 166.226 50.9414H133.971ZM155.535 30.5993L153.825 38.5406H164.332C168.73 38.5406 171.418 38.2352 172.212 34.4478C172.884 31.4545 170.868 30.5993 166.714 30.5993H155.535Z" fill="white"/>
<path d="M74.1868 50.9414L84.6938 1.52161H132.037L129.349 14.1667H99.5992L98.2552 20.3366H126.172L123.668 32.1265H95.7507L94.4678 38.2352H125.073L122.385 50.9414H74.1868Z" fill="white"/>
<path d="M76.7806 1.52161L51.3071 50.9414H33.7749L33.5917 24.5516H33.3473L22.0461 50.9414H4.57511L0.543335 1.52161H17.3424L18.0144 30.7214H18.1365L31.026 1.52161H46.2368L46.4201 31.149H46.6644L59.8593 1.52161H76.7806Z" fill="white"/>
</svg>
